<?xml version="1.0" encoding="utf-8" standalone="no"?>
<!DOCTYPE svg PUBLIC "-//W3C//DTD SVG 1.1//EN"
  "http://www.w3.org/Graphics/SVG/1.1/DTD/svg11.dtd">
<svg xmlns:xlink="http://www.w3.org/1999/xlink" width="448.575pt" height="179.730894pt" viewBox="0 0 448.575 179.730894" xmlns="http://www.w3.org/2000/svg" version="1.1">
 <metadata>
  <rdf:RDF xmlns:dc="http://purl.org/dc/elements/1.1/" xmlns:cc="http://creativecommons.org/ns#" xmlns:rdf="http://www.w3.org/1999/02/22-rdf-syntax-ns#">
   <cc:Work>
    <dc:type rdf:resource="http://purl.org/dc/dcmitype/StillImage"/>
    <dc:date>2026-05-29T17:33:58.636781</dc:date>
    <dc:format>image/svg+xml</dc:format>
    <dc:creator>
     <cc:Agent>
      <dc:title>Matplotlib v3.10.9, https://matplotlib.org/</dc:title>
     </cc:Agent>
    </dc:creator>
   </cc:Work>
  </rdf:RDF>
 </metadata>
 <defs>
  <style type="text/css">*{stroke-linejoin: round; stroke-linecap: butt}</style>
 </defs>
 <g id="figure_1">
  <g id="patch_1">
   <path d="M 0 179.730894 
L 448.575 179.730894 
L 448.575 0 
L 0 0 
z
" style="fill: #ffffff"/>
  </g>
  <g id="axes_1">
   <g id="patch_2">
    <path d="M 42.7 146.25732 
L 441.375 146.25732 
L 441.375 31.57275 
L 42.7 31.57275 
z
" style="fill: #ffffff"/>
   </g>
   <g id="matplotlib.axis_1"/>
   <g id="matplotlib.axis_2">
    <g id="ytick_1">
     <g id="line2d_1">
      <defs>
       <path id="me627614d22" d="M 0 0 
L -3.5 0 
" style="stroke: #8c7e72; stroke-width: 0.6"/>
      </defs>
      <g>
       <use xlink:href="#me627614d22" x="42.7" y="132.35616" style="fill: #8c7e72; stroke: #8c7e72; stroke-width: 0.6"/>
      </g>
     </g>
     <g id="text_1">
      <!-- 步行 -->
      <g style="fill: #8c7e72" transform="translate(16.7 136.174715) scale(0.095 -0.095)">
       <defs>
        <path id="STSongti-SC-Black-6b65" d="M 3808 4179 
L 4429 4179 
Q 4448 4224 4573 4416 
Q 4698 4608 4726 4640 
Q 4755 4672 4794 4672 
Q 4870 4672 5228 4393 
Q 5587 4115 5587 4041 
Q 5587 3968 5472 3968 
L 3808 3968 
L 3808 3034 
L 5094 3034 
Q 5382 3571 5478 3571 
Q 5574 3571 5910 3260 
Q 6246 2950 6246 2886 
Q 6246 2822 6118 2822 
L 3763 2822 
Q 3917 2778 3917 2717 
Q 3917 2656 3763 2579 
L 3763 1018 
Q 4294 1581 4794 2445 
Q 5670 1907 5670 1734 
Q 5670 1696 5638 1677 
Q 5606 1658 5555 1658 
L 5466 1664 
Q 5382 1664 5312 1594 
L 5133 1414 
Q 4698 998 4474 809 
Q 4250 621 3834 333 
Q 3418 45 3062 -131 
Q 2707 -307 2326 -409 
Q 1946 -512 1408 -573 
Q 870 -634 570 -634 
Q 486 -634 486 -595 
Q 486 -557 557 -544 
Q 1434 -358 2077 -80 
Q 2720 198 3328 653 
Q 3066 614 2938 614 
Q 2886 614 2886 672 
L 2899 909 
Q 2906 1075 2906 1408 
L 2906 2483 
Q 2906 2611 2893 2822 
L 621 2822 
Q 493 2822 390 2752 
L 224 3053 
Q 378 3034 544 3034 
L 1414 3034 
L 1414 4115 
Q 1414 4429 1402 4685 
Q 1933 4640 2147 4592 
Q 2362 4544 2362 4470 
Q 2362 4397 2208 4339 
L 2208 3034 
L 2970 3034 
L 2970 4730 
Q 2970 5050 2957 5299 
Q 3494 5261 3721 5219 
Q 3949 5178 3949 5088 
Q 3949 5018 3808 4973 
L 3808 4179 
z
M 1651 2566 
Q 1990 2426 2259 2288 
Q 2528 2150 2566 2115 
Q 2605 2080 2605 2038 
Q 2605 1997 2569 1981 
Q 2534 1965 2438 1965 
Q 2374 1965 2195 1779 
Q 1638 1210 1168 909 
Q 698 608 621 608 
Q 595 608 595 640 
Q 595 672 659 742 
Q 1389 1510 1651 2566 
z
" transform="scale(0.015625)"/>
        <path id="STSongti-SC-Black-884c" d="M 1875 5286 
Q 2221 5120 2473 4969 
Q 2726 4819 2764 4777 
Q 2803 4736 2803 4698 
Q 2803 4634 2701 4614 
Q 2509 4589 2246 4371 
Q 1882 4070 1219 3708 
Q 557 3347 461 3347 
Q 435 3347 435 3372 
Q 435 3398 518 3475 
Q 1101 4006 1379 4400 
Q 1658 4794 1875 5286 
z
M 4787 4538 
Q 4915 4781 5017 4921 
Q 5120 5062 5165 5062 
Q 5235 5062 5593 4758 
Q 5952 4454 5952 4390 
Q 5952 4326 5824 4326 
L 3514 4326 
Q 3386 4326 3283 4256 
L 3117 4557 
Q 3270 4538 3437 4538 
L 4787 4538 
z
M 1312 2003 
Q 998 1779 694 1596 
Q 390 1414 358 1398 
Q 326 1382 310 1382 
Q 294 1382 294 1404 
Q 294 1427 358 1498 
Q 1024 2240 1360 2768 
Q 1696 3296 1971 3962 
Q 2176 3885 2518 3661 
Q 2861 3437 2880 3414 
Q 2899 3392 2899 3353 
Q 2899 3315 2803 3283 
Q 2566 3213 2486 3097 
Q 2406 2982 2061 2630 
Q 2240 2573 2240 2512 
Q 2240 2451 2106 2387 
L 2106 -435 
Q 2106 -493 2074 -528 
Q 2042 -563 1757 -630 
Q 1472 -698 1331 -698 
Q 1286 -698 1286 -634 
L 1306 -32 
Q 1312 250 1312 499 
L 1312 2003 
z
M 4262 2771 
L 2918 2771 
Q 2790 2771 2688 2701 
L 2522 3002 
Q 2675 2982 2842 2982 
L 5197 2982 
Q 5402 3315 5466 3401 
Q 5530 3488 5574 3488 
Q 5658 3488 6006 3200 
Q 6355 2912 6355 2841 
Q 6355 2771 6227 2771 
L 5197 2771 
Q 5190 2714 5133 2637 
L 5133 13 
Q 5133 -301 5062 -448 
Q 4992 -595 4729 -665 
Q 4467 -736 4013 -736 
Q 3917 -736 3849 -681 
Q 3782 -627 3782 -550 
Q 3782 -326 3660 -220 
Q 3539 -115 3258 -58 
Q 3187 -45 3187 -13 
Q 3187 19 3366 19 
Q 3834 19 4048 73 
Q 4262 128 4262 269 
L 4262 2771 
z
" transform="scale(0.015625)"/>
       </defs>
       <use xlink:href="#STSongti-SC-Black-6b65"/>
       <use xlink:href="#STSongti-SC-Black-884c" transform="translate(99.999985 0)"/>
      </g>
     </g>
    </g>
    <g id="ytick_2">
     <g id="line2d_2">
      <g>
       <use xlink:href="#me627614d22" x="42.7" y="103.39541" style="fill: #8c7e72; stroke: #8c7e72; stroke-width: 0.6"/>
      </g>
     </g>
     <g id="text_2">
      <!-- 累 -->
      <g style="fill: #8c7e72" transform="translate(26.2 107.138262) scale(0.095 -0.095)">
       <defs>
        <path id="STSongti-SC-Black-7d2f" d="M 2080 4986 
L 4698 4986 
Q 4774 5146 4835 5222 
Q 4896 5299 4947 5299 
Q 5062 5299 5456 5107 
Q 5850 4915 5850 4828 
Q 5850 4742 5645 4666 
L 5645 4026 
L 5658 3379 
Q 5658 3290 5616 3248 
Q 5574 3206 5372 3148 
Q 5171 3091 4960 3091 
Q 4845 3091 4838 3232 
L 3725 3232 
Q 3942 3142 3942 3059 
Q 3942 2995 3779 2988 
Q 3616 2982 3152 2860 
Q 2688 2739 2163 2509 
L 3565 2534 
Q 4160 2835 4544 3136 
Q 5363 2701 5363 2554 
Q 5363 2509 5331 2499 
Q 5299 2490 5190 2490 
Q 4954 2490 4090 2176 
Q 4941 2125 5376 1904 
Q 5811 1683 5811 1389 
Q 5811 1190 5670 1062 
Q 5530 934 5293 934 
Q 5178 934 5114 998 
Q 5050 1062 5018 1200 
Q 4986 1338 4947 1421 
L 4000 1325 
Q 4013 1312 4013 1293 
Q 4013 1222 3866 1165 
L 3866 70 
Q 3866 -230 3763 -368 
Q 3661 -506 3401 -570 
Q 3142 -634 2982 -634 
Q 2822 -634 2803 -474 
Q 2784 -275 2694 -182 
Q 2605 -90 2362 -19 
Q 2278 6 2278 32 
Q 2278 58 2387 58 
Q 2867 70 2985 108 
Q 3104 147 3104 301 
L 3104 1235 
Q 1990 1126 1798 1101 
Q 2022 1011 2316 870 
Q 2611 730 2649 694 
Q 2688 659 2688 634 
Q 2688 582 2544 576 
Q 2400 570 2118 378 
Q 1555 0 988 -243 
Q 422 -486 333 -486 
Q 314 -486 314 -480 
Q 314 -461 403 -397 
Q 1299 243 1747 1094 
Q 1370 1050 1270 1024 
Q 1171 998 1136 998 
Q 1101 998 1078 1036 
Q 1056 1075 969 1308 
Q 883 1542 883 1600 
Q 883 1658 956 1651 
Q 1030 1645 1120 1645 
Q 1722 1645 2317 1939 
Q 2650 2106 2822 2176 
Q 1683 1990 1504 1933 
Q 1478 1926 1446 1926 
Q 1414 1926 1388 1974 
Q 1363 2022 1299 2224 
Q 1235 2426 1235 2480 
Q 1235 2534 1331 2534 
L 1408 2534 
Q 1658 2534 2042 2716 
Q 2426 2899 2758 3232 
L 2022 3232 
Q 2022 3136 1820 3085 
Q 1619 3034 1475 3034 
Q 1331 3034 1308 3053 
Q 1286 3072 1286 3130 
L 1293 3507 
Q 1299 3686 1299 3987 
L 1299 4544 
Q 1299 4934 1286 5216 
Q 1715 5120 2080 4986 
z
M 3014 4774 
L 2157 4774 
Q 2131 4685 2029 4653 
L 2029 4230 
L 3014 4230 
L 3014 4774 
z
M 4838 4230 
L 4838 4774 
L 3840 4774 
Q 3808 4698 3757 4666 
L 3757 4230 
L 4838 4230 
z
M 3014 4019 
L 2029 4019 
L 2029 3443 
L 3014 3443 
L 3014 4019 
z
M 4838 3443 
L 4838 4019 
L 3757 4019 
L 3757 3443 
L 4838 3443 
z
M 3968 2131 
Q 2925 1773 2176 1613 
L 4787 1651 
Q 4557 1914 3968 2131 
z
M 4154 934 
Q 4403 934 4976 835 
Q 5549 736 5789 566 
Q 6029 397 6029 109 
Q 6029 -96 5888 -243 
Q 5747 -390 5555 -390 
Q 5453 -390 5353 -307 
Q 5254 -224 5210 -90 
Q 5120 198 4829 470 
Q 4538 742 4205 845 
Q 4070 883 4070 908 
Q 4070 934 4154 934 
z
" transform="scale(0.015625)"/>
       </defs>
       <use xlink:href="#STSongti-SC-Black-7d2f"/>
      </g>
     </g>
    </g>
    <g id="ytick_3">
     <g id="line2d_3">
      <g>
       <use xlink:href="#me627614d22" x="42.7" y="74.43466" style="fill: #8c7e72; stroke: #8c7e72; stroke-width: 0.6"/>
      </g>
     </g>
     <g id="text_3">
      <!-- 回头路 -->
      <g style="fill: #8c7e72" transform="translate(7.2 78.220558) scale(0.095 -0.095)">
       <defs>
        <path id="STSongti-SC-Black-56de" d="M 1530 4621 
L 4800 4621 
Q 4870 4768 4937 4883 
Q 5005 4998 5027 5017 
Q 5050 5037 5088 5037 
Q 5165 5037 5565 4774 
Q 5965 4512 5965 4425 
Q 5965 4339 5728 4224 
L 5728 403 
Q 5728 109 5734 -6 
L 5741 -218 
Q 5741 -333 5542 -416 
Q 5344 -499 5056 -499 
Q 4902 -499 4902 -314 
L 4902 45 
L 1427 45 
L 1427 -230 
Q 1427 -314 1395 -362 
Q 1363 -410 1232 -464 
Q 1101 -518 928 -550 
Q 755 -582 710 -582 
Q 666 -582 666 -525 
L 678 -224 
Q 691 90 691 346 
L 691 4378 
Q 691 4698 678 4947 
Q 1069 4851 1530 4621 
z
M 4902 256 
L 4902 4410 
L 1504 4410 
Q 1478 4378 1427 4358 
L 1427 256 
L 4902 256 
z
M 2701 3411 
L 3558 3411 
Q 3725 3738 3792 3738 
Q 3859 3738 4067 3594 
Q 4275 3450 4416 3344 
Q 4557 3238 4557 3145 
Q 4557 3053 4378 3008 
L 4378 1587 
Q 4378 1478 4384 1395 
L 4397 1254 
Q 4397 1197 4333 1171 
L 4160 1101 
Q 4051 1062 3891 1062 
Q 3731 1062 3696 1075 
Q 3661 1088 3632 1126 
Q 3603 1165 3603 1216 
L 3603 1421 
L 2669 1421 
L 2669 1184 
Q 2669 1146 2653 1130 
Q 2637 1114 2537 1069 
Q 2438 1024 2332 1008 
Q 2227 992 2048 992 
Q 1933 992 1939 1101 
Q 1952 1248 1952 1574 
L 1952 3168 
Q 1952 3437 1933 3712 
Q 2406 3552 2701 3411 
z
M 3603 1632 
L 3603 3200 
L 2803 3200 
Q 2765 3155 2669 3110 
L 2669 1632 
L 3603 1632 
z
" transform="scale(0.015625)"/>
        <path id="STSongti-SC-Black-5934" d="M 3898 1850 
Q 3866 1690 3744 1427 
Q 4730 1299 5267 912 
Q 5805 525 5805 32 
Q 5805 -166 5645 -332 
Q 5485 -499 5280 -499 
Q 4986 -499 4845 -115 
Q 4525 787 3680 1293 
Q 3334 576 2787 131 
Q 2240 -314 1577 -499 
Q 915 -685 390 -685 
Q 262 -685 262 -659 
Q 262 -634 422 -589 
Q 1498 -301 2093 281 
Q 2688 864 3046 1850 
L 698 1850 
Q 570 1850 467 1779 
L 301 2080 
Q 454 2061 621 2061 
L 3110 2061 
Q 3226 2413 3270 2950 
Q 3315 3488 3315 4166 
Q 3315 4845 3309 5306 
Q 3763 5248 4060 5187 
Q 4358 5126 4425 5081 
Q 4493 5037 4493 4969 
Q 4493 4902 4371 4838 
Q 4326 4813 4307 4761 
Q 4288 4710 4282 4550 
Q 4160 2720 3962 2061 
L 4986 2061 
Q 5306 2566 5344 2614 
Q 5382 2662 5427 2662 
Q 5472 2662 5622 2547 
Q 5773 2432 5949 2278 
Q 6125 2125 6208 2035 
Q 6291 1946 6291 1898 
Q 6291 1850 6176 1850 
L 3898 1850 
z
M 1414 4883 
Q 1709 4883 2118 4790 
Q 2528 4698 2733 4518 
Q 2938 4339 2938 4105 
Q 2938 3872 2794 3721 
Q 2650 3571 2426 3571 
Q 2074 3571 2022 4013 
Q 1997 4275 1833 4492 
Q 1670 4710 1446 4806 
Q 1350 4845 1350 4864 
Q 1350 4883 1414 4883 
z
M 1190 3514 
Q 1837 3514 2208 3306 
Q 2579 3098 2579 2758 
Q 2579 2541 2441 2390 
Q 2304 2240 2109 2240 
Q 1914 2240 1821 2345 
Q 1728 2451 1689 2694 
Q 1651 2938 1436 3165 
Q 1222 3392 1018 3430 
Q 928 3450 928 3482 
Q 928 3514 1190 3514 
z
" transform="scale(0.015625)"/>
        <path id="STSongti-SC-Black-8def" d="M 2016 2925 
Q 1990 2938 1990 3021 
L 1990 3194 
L 1274 3194 
L 1274 3078 
Q 1274 3027 1232 2995 
Q 1190 2963 1107 2918 
Q 1024 2874 845 2858 
Q 666 2842 618 2842 
Q 570 2842 570 2893 
L 582 3174 
Q 595 3366 595 3526 
L 595 4506 
Q 595 4787 576 5062 
Q 973 4954 1293 4794 
L 1920 4794 
Q 2054 5075 2083 5107 
Q 2112 5139 2150 5139 
Q 2189 5139 2403 5004 
Q 2618 4870 2749 4771 
Q 2880 4672 2880 4627 
Q 2880 4563 2669 4486 
L 2669 3789 
Q 2669 3450 2675 3354 
L 2682 3174 
Q 2682 3136 2624 3091 
Q 2566 3046 2422 2992 
Q 2278 2938 2086 2912 
Q 2266 2918 2266 2844 
Q 2266 2771 2106 2682 
L 2106 1965 
L 2157 1965 
Q 2387 2330 2416 2362 
Q 2445 2394 2480 2394 
Q 2515 2394 2694 2262 
Q 2874 2131 3046 1952 
Q 3514 2336 3898 2822 
Q 3648 3136 3501 3546 
Q 3309 3322 3069 3101 
Q 2829 2880 2723 2803 
Q 2618 2726 2592 2726 
Q 2566 2726 2566 2755 
Q 2566 2784 2598 2829 
Q 3277 3718 3450 5280 
Q 3968 5184 4192 5120 
Q 4416 5056 4467 5021 
Q 4518 4986 4518 4954 
Q 4518 4902 4425 4867 
Q 4333 4832 4272 4758 
Q 4211 4685 4090 4442 
L 4666 4442 
Q 4838 4717 4876 4768 
Q 4915 4819 4966 4819 
Q 5018 4819 5274 4649 
Q 5530 4480 5699 4333 
Q 5869 4186 5869 4109 
Q 5869 4000 5651 3987 
Q 5587 3981 5532 3933 
Q 5478 3885 5241 3565 
Q 5005 3245 4736 2944 
Q 5056 2752 5398 2630 
Q 5741 2509 6291 2400 
Q 6387 2381 6387 2294 
Q 6387 2208 6294 2169 
Q 6202 2131 6080 1987 
Q 5958 1843 5869 1651 
Q 5824 1549 5766 1549 
Q 5677 1549 5120 1862 
Q 4563 2176 4250 2458 
Q 3808 2061 3264 1760 
Q 3533 1677 3706 1587 
L 4717 1587 
Q 4858 1824 4928 1824 
Q 4998 1824 5030 1805 
L 5350 1632 
Q 5638 1478 5683 1430 
Q 5728 1382 5728 1338 
Q 5728 1235 5536 1171 
L 5536 211 
Q 5536 -128 5542 -224 
L 5549 -403 
Q 5549 -486 5376 -560 
Q 5203 -634 4851 -634 
Q 4794 -634 4778 -614 
Q 4762 -595 4762 -525 
L 4762 -192 
L 3731 -192 
L 3731 -416 
Q 3731 -461 3696 -489 
Q 3661 -518 3571 -566 
Q 3482 -614 3293 -633 
Q 3104 -653 3056 -653 
Q 3008 -653 3008 -602 
L 3021 -320 
Q 3034 -128 3034 32 
L 3034 774 
Q 2099 384 1398 51 
Q 698 -282 582 -358 
Q 467 -435 438 -435 
Q 410 -435 394 -412 
Q 378 -390 294 -108 
Q 211 173 147 429 
Q 269 442 493 474 
L 493 1933 
Q 493 2272 480 2515 
Q 1018 2490 1158 2448 
Q 1299 2406 1299 2339 
Q 1299 2272 1158 2214 
L 1158 563 
L 1440 602 
L 1440 2413 
Q 1440 2726 1427 2963 
Q 1696 2957 2016 2925 
z
M 1990 3405 
L 1990 4582 
L 1382 4582 
Q 1350 4531 1274 4506 
L 1274 3405 
L 1990 3405 
z
M 3974 4230 
Q 3866 4032 3686 3789 
Q 3866 3546 4218 3283 
Q 4493 3718 4685 4230 
L 3974 4230 
z
M 3027 1638 
Q 2387 1357 2304 1357 
Q 2278 1357 2278 1376 
Q 2278 1414 2441 1516 
Q 2605 1619 2790 1754 
L 2106 1754 
L 2106 704 
L 3034 864 
L 3034 1280 
L 3027 1638 
z
M 3846 1376 
Q 3814 1306 3731 1280 
L 3731 19 
L 4762 19 
L 4762 1376 
L 3846 1376 
z
" transform="scale(0.015625)"/>
       </defs>
       <use xlink:href="#STSongti-SC-Black-56de"/>
       <use xlink:href="#STSongti-SC-Black-5934" transform="translate(99.999985 0)"/>
       <use xlink:href="#STSongti-SC-Black-8def" transform="translate(199.999969 0)"/>
      </g>
     </g>
    </g>
    <g id="ytick_4">
     <g id="line2d_4">
      <g>
       <use xlink:href="#me627614d22" x="42.7" y="45.47391" style="fill: #8c7e72; stroke: #8c7e72; stroke-width: 0.6"/>
      </g>
     </g>
     <g id="text_4">
      <!-- 暴走 -->
      <g style="fill: #8c7e72" transform="translate(16.7 49.278363) scale(0.095 -0.095)">
       <defs>
        <path id="STSongti-SC-Black-66b4" d="M 1901 5050 
L 4467 5050 
Q 4614 5254 4649 5296 
Q 4685 5338 4723 5338 
Q 4794 5338 5162 5114 
Q 5530 4890 5530 4810 
Q 5530 4730 5325 4659 
L 5325 4102 
L 5338 3693 
Q 5338 3642 5312 3610 
Q 5286 3578 5180 3530 
Q 5075 3482 4873 3443 
Q 4672 3405 4608 3405 
Q 4544 3405 4544 3552 
L 4544 3578 
L 1882 3578 
Q 1875 3507 1836 3475 
Q 1798 3443 1580 3385 
Q 1363 3328 1203 3328 
Q 1152 3328 1152 3379 
L 1165 3661 
Q 1178 3853 1178 4013 
L 1178 4723 
Q 1178 5005 1158 5280 
Q 1626 5165 1901 5050 
z
M 4544 4416 
L 4544 4838 
L 1984 4838 
Q 1958 4781 1882 4755 
L 1882 4416 
L 4544 4416 
z
M 4544 3789 
L 4544 4205 
L 1882 4205 
L 1882 3789 
L 4544 3789 
z
M 1894 2784 
L 1069 2784 
Q 941 2784 838 2714 
L 672 3014 
Q 826 2995 992 2995 
L 1894 2995 
Q 1894 3296 1882 3533 
Q 2413 3507 2557 3475 
Q 2701 3443 2701 3398 
Q 2701 3354 2598 3290 
L 2598 2995 
L 3853 2995 
Q 3853 3277 3840 3514 
Q 4371 3462 4512 3427 
Q 4653 3392 4653 3353 
Q 4653 3315 4557 3251 
L 4557 2995 
L 4960 2995 
Q 5101 3270 5165 3369 
Q 5229 3469 5274 3469 
Q 5357 3469 5670 3209 
Q 5984 2950 5984 2867 
Q 5984 2784 5856 2784 
L 4557 2784 
L 4557 2253 
L 5171 2253 
Q 5376 2592 5427 2662 
Q 5478 2733 5545 2733 
Q 5613 2733 5949 2473 
Q 6285 2214 6285 2128 
Q 6285 2042 6157 2042 
L 4608 2042 
Q 4838 1779 5206 1596 
Q 5574 1414 6349 1254 
Q 6438 1235 6438 1209 
Q 6438 1184 6355 1139 
Q 6029 954 5869 582 
Q 5837 512 5785 512 
Q 5734 512 5417 697 
Q 5101 883 4890 1101 
Q 4864 1075 4813 1075 
Q 4653 1075 4381 995 
Q 4109 915 3814 774 
Q 4525 666 4877 467 
Q 5229 269 5229 -58 
Q 5229 -230 5113 -355 
Q 4998 -480 4870 -480 
Q 4742 -480 4665 -397 
Q 4589 -314 4489 -102 
Q 4390 109 4147 329 
Q 3904 550 3635 659 
L 3635 83 
Q 3635 -326 3542 -441 
Q 3450 -557 3226 -617 
Q 3002 -678 2915 -678 
Q 2829 -678 2777 -633 
Q 2726 -589 2720 -531 
Q 2707 -307 2601 -227 
Q 2496 -147 2253 -77 
Q 2189 -58 2189 -38 
Q 2189 -19 2291 -19 
L 2406 -19 
Q 2733 -19 2832 48 
Q 2931 115 2931 288 
L 2931 749 
Q 2502 525 2124 294 
Q 1747 64 1299 -288 
Q 1254 -320 1235 -320 
Q 1216 -320 1200 -307 
Q 1184 -294 1059 -70 
Q 934 154 826 397 
Q 1670 512 2931 870 
L 2931 1370 
Q 2931 1690 2918 1939 
Q 3469 1920 3632 1881 
Q 3795 1843 3795 1782 
Q 3795 1722 3635 1645 
L 3635 909 
Q 3725 1030 4096 1613 
Q 4480 1427 4723 1293 
Q 4544 1523 4333 2042 
L 2502 2042 
Q 2304 1779 2003 1542 
Q 2522 1421 2522 1082 
Q 2522 928 2438 829 
Q 2355 730 2224 730 
Q 2093 730 2006 806 
Q 1920 883 1929 972 
Q 1939 1062 1939 1126 
Q 1939 1331 1843 1421 
Q 1389 1101 838 893 
Q 288 685 186 685 
Q 147 685 147 707 
Q 147 730 243 787 
Q 781 1139 1097 1427 
Q 1414 1715 1619 2042 
L 685 2042 
Q 557 2042 454 1971 
L 288 2272 
Q 442 2253 608 2253 
L 1894 2253 
L 1894 2784 
z
M 3853 2784 
L 2598 2784 
L 2598 2253 
L 3853 2253 
L 3853 2784 
z
" transform="scale(0.015625)"/>
        <path id="STSongti-SC-Black-8d70" d="M 2797 3898 
L 1146 3898 
Q 1018 3898 915 3827 
L 749 4128 
Q 902 4109 1069 4109 
L 2797 4109 
L 2797 4653 
Q 2797 4973 2784 5222 
Q 3494 5203 3644 5164 
Q 3795 5126 3795 5059 
Q 3795 4992 3648 4915 
L 3648 4109 
L 4486 4109 
Q 4781 4659 4870 4659 
Q 4947 4659 5328 4355 
Q 5709 4051 5709 3974 
Q 5709 3898 5600 3898 
L 3648 3898 
L 3648 2854 
L 5088 2854 
Q 5146 2970 5270 3162 
Q 5395 3354 5420 3373 
Q 5446 3392 5472 3392 
Q 5549 3392 5901 3088 
Q 6253 2784 6253 2713 
Q 6253 2643 6144 2643 
L 3366 2643 
Q 3674 2586 3750 2550 
Q 3827 2515 3827 2467 
Q 3827 2419 3667 2330 
L 3667 1715 
L 4410 1715 
Q 4659 2131 4704 2182 
Q 4749 2234 4787 2234 
Q 4858 2234 5206 1936 
Q 5555 1638 5555 1571 
Q 5555 1504 5434 1504 
L 3667 1504 
L 3667 218 
Q 3949 192 4365 192 
Q 4781 192 5306 211 
L 6202 256 
Q 6272 256 6272 237 
Q 6272 211 6118 140 
Q 5965 70 5872 -26 
Q 5779 -122 5690 -486 
Q 5670 -582 5478 -582 
Q 4550 -582 3955 -540 
Q 3360 -499 3136 -435 
Q 2912 -371 2630 -185 
Q 2349 0 2179 253 
Q 2010 506 1914 915 
Q 1690 429 1395 112 
Q 1101 -205 717 -432 
Q 333 -659 275 -659 
Q 262 -659 262 -640 
Q 262 -621 326 -570 
Q 858 -115 1104 544 
Q 1350 1203 1402 2240 
Q 1805 2163 2089 2089 
Q 2374 2016 2412 1993 
Q 2451 1971 2451 1929 
Q 2451 1888 2362 1850 
Q 2234 1798 2195 1660 
Q 2157 1523 2016 1152 
Q 2349 563 2829 384 
L 2829 2150 
L 2822 2643 
L 672 2643 
Q 544 2643 442 2573 
L 275 2874 
Q 429 2854 595 2854 
L 2797 2854 
L 2797 3898 
z
" transform="scale(0.015625)"/>
       </defs>
       <use xlink:href="#STSongti-SC-Black-66b4"/>
       <use xlink:href="#STSongti-SC-Black-8d70" transform="translate(99.999985 0)"/>
      </g>
     </g>
    </g>
   </g>
   <g id="patch_3">
    <path d="M 42.7 141.044385 
L 369.482787 141.044385 
L 369.482787 123.667935 
L 42.7 123.667935 
z
" clip-path="url(#p6dc8e38af4)" style="fill: #62aaa7"/>
   </g>
   <g id="patch_4">
    <path d="M 42.7 112.083635 
L 128.69547 112.083635 
L 128.69547 94.707185 
L 42.7 94.707185 
z
" clip-path="url(#p6dc8e38af4)" style="fill: #b8d2c8"/>
   </g>
   <g id="patch_5">
    <path d="M 42.7 83.122885 
L 82.831219 83.122885 
L 82.831219 65.746435 
L 42.7 65.746435 
z
" clip-path="url(#p6dc8e38af4)" style="fill: #b8d2c8"/>
   </g>
   <g id="patch_6">
    <path d="M 42.7 54.162135 
L 71.365157 54.162135 
L 71.365157 36.785685 
L 42.7 36.785685 
z
" clip-path="url(#p6dc8e38af4)" style="fill: #b8d2c8"/>
   </g>
   <g id="patch_7">
    <path d="M 42.7 146.25732 
L 42.7 31.57275 
" style="fill: none; stroke: #e5e0d8; stroke-width: 0.8; stroke-linejoin: miter; stroke-linecap: square"/>
   </g>
   <g id="patch_8">
    <path d="M 42.7 146.25732 
L 441.375 146.25732 
" style="fill: none; stroke: #e5e0d8; stroke-width: 0.8; stroke-linejoin: miter; stroke-linecap: square"/>
   </g>
   <g id="text_5">
    <!-- 57 次 -->
    <g style="fill: #4a3b32" transform="translate(378.082334 135.302957) scale(0.09 -0.09)">
     <defs>
      <path id="STSongti-SC-Black-35" d="M 2490 3763 
L 1536 3763 
Q 1286 3763 1094 3760 
Q 902 3757 877 3744 
L 819 2880 
Q 960 2950 1145 2982 
Q 1331 3014 1478 3014 
Q 1805 3014 2051 2908 
Q 2298 2803 2464 2627 
Q 2630 2451 2713 2220 
Q 2797 1990 2797 1741 
Q 2797 1414 2662 1145 
Q 2528 877 2310 685 
Q 2093 493 1817 387 
Q 1542 282 1254 282 
Q 1107 282 934 310 
Q 762 339 611 393 
Q 461 448 361 528 
Q 262 608 262 717 
Q 262 794 313 854 
Q 365 915 435 950 
Q 506 986 582 986 
Q 659 986 710 941 
Q 864 813 963 723 
Q 1062 634 1139 576 
Q 1216 518 1286 492 
Q 1357 467 1453 467 
Q 1632 467 1766 550 
Q 1901 634 1993 778 
Q 2086 922 2134 1114 
Q 2182 1306 2182 1523 
Q 2182 1728 2118 1897 
Q 2054 2067 1939 2192 
Q 1824 2317 1667 2387 
Q 1510 2458 1318 2458 
Q 1101 2458 957 2410 
Q 813 2362 723 2272 
L 614 2272 
L 736 4384 
L 1542 4384 
Q 1792 4384 1952 4384 
Q 2112 4384 2205 4400 
Q 2298 4416 2336 4451 
Q 2374 4486 2387 4557 
L 2547 4557 
L 2490 3763 
z
" transform="scale(0.015625)"/>
      <path id="STSongti-SC-Black-37" d="M 358 4384 
L 2822 4384 
L 2822 4275 
Q 2714 4083 2522 3596 
Q 2330 3110 2042 2310 
Q 1485 736 1427 384 
L 1043 384 
Q 1120 717 1222 1065 
Q 1325 1414 1462 1817 
Q 1600 2221 1779 2691 
Q 1958 3162 2189 3731 
L 634 3731 
Q 467 3731 461 3648 
L 410 3379 
L 269 3379 
L 358 4384 
z
" transform="scale(0.015625)"/>
      <path id="STSongti-SC-Black-20" transform="scale(0.015625)"/>
      <path id="STSongti-SC-Black-6b21" d="M 3379 3782 
Q 2931 2957 2464 2457 
Q 1997 1958 1933 1958 
Q 1920 1958 1920 1971 
Q 1920 2003 1984 2106 
Q 2368 2733 2624 3577 
Q 2880 4422 2938 5293 
Q 3392 5184 3721 5081 
Q 4051 4979 4096 4947 
Q 4141 4915 4141 4870 
Q 4141 4794 4025 4774 
Q 3910 4755 3849 4688 
Q 3789 4621 3696 4413 
Q 3603 4205 3488 3994 
L 4832 3994 
Q 4922 4179 5011 4304 
Q 5101 4429 5158 4429 
Q 5254 4429 5699 4080 
Q 6144 3731 6144 3600 
Q 6144 3469 5952 3469 
L 5722 3475 
Q 5427 3475 5238 3350 
Q 5050 3226 4819 2931 
Q 4755 2848 4726 2848 
Q 4698 2848 4698 2883 
Q 4698 2918 4710 2970 
Q 4845 3398 4909 3782 
L 3379 3782 
z
M 691 4685 
Q 1882 4685 1882 3962 
Q 1882 3763 1728 3606 
Q 1574 3450 1401 3450 
Q 1229 3450 1139 3546 
Q 1050 3642 1034 3872 
Q 1018 4102 902 4294 
Q 787 4486 550 4608 
Q 480 4646 480 4665 
Q 480 4685 691 4685 
z
M 2426 4224 
L 1658 2150 
Q 1510 1754 1510 1418 
Q 1510 1082 1619 493 
Q 1645 352 1645 237 
Q 1645 -320 1088 -320 
Q 870 -320 752 -201 
Q 634 -83 634 89 
Q 634 262 678 410 
Q 864 986 864 1184 
Q 864 1382 749 1484 
Q 634 1587 269 1670 
Q 218 1683 218 1712 
Q 218 1741 275 1741 
L 442 1734 
Q 762 1734 970 1878 
Q 1178 2022 1402 2445 
L 2349 4262 
Q 2400 4352 2422 4352 
Q 2445 4352 2445 4317 
Q 2445 4282 2426 4224 
z
M 4134 2061 
Q 4013 1389 3715 883 
Q 3418 378 2938 29 
Q 2458 -320 1885 -499 
Q 1312 -678 1203 -678 
Q 1171 -678 1171 -672 
Q 1171 -646 1306 -582 
Q 2502 13 2963 797 
Q 3424 1581 3424 2931 
Q 3424 3162 3411 3411 
Q 4051 3347 4390 3334 
Q 4538 3328 4538 3245 
Q 4538 3162 4419 3126 
Q 4301 3091 4250 2931 
Q 4352 1862 4809 1180 
Q 5267 499 6189 115 
Q 6278 77 6278 51 
Q 6278 26 6182 -6 
Q 5946 -90 5754 -243 
Q 5562 -397 5491 -544 
Q 5453 -627 5382 -627 
Q 5248 -627 4870 -198 
Q 4493 230 4323 768 
Q 4154 1306 4134 2061 
z
" transform="scale(0.015625)"/>
     </defs>
     <use xlink:href="#STSongti-SC-Black-35"/>
     <use xlink:href="#STSongti-SC-Black-37" transform="translate(46.899994 0)"/>
     <use xlink:href="#STSongti-SC-Black-20" transform="translate(93.799988 0)"/>
     <use xlink:href="#STSongti-SC-Black-6b21" transform="translate(118.799973 0)"/>
    </g>
   </g>
   <g id="text_6">
    <!-- 15 次 -->
    <g style="fill: #4a3b32" transform="translate(137.295017 106.342207) scale(0.09 -0.09)">
     <defs>
      <path id="STSongti-SC-Black-31" d="M 2464 365 
Q 2298 371 2045 377 
Q 1792 384 1523 384 
Q 1254 384 1001 377 
Q 749 371 582 365 
L 582 550 
L 979 608 
Q 1203 659 1203 858 
L 1203 3840 
L 442 3347 
L 333 3546 
Q 442 3616 608 3718 
Q 774 3821 960 3942 
Q 1146 4064 1331 4192 
Q 1517 4320 1670 4448 
L 1882 4448 
L 1882 858 
Q 1882 634 2106 602 
L 2464 550 
L 2464 365 
z
" transform="scale(0.015625)"/>
     </defs>
     <use xlink:href="#STSongti-SC-Black-31"/>
     <use xlink:href="#STSongti-SC-Black-35" transform="translate(46.899994 0)"/>
     <use xlink:href="#STSongti-SC-Black-20" transform="translate(93.799988 0)"/>
     <use xlink:href="#STSongti-SC-Black-6b21" transform="translate(118.799973 0)"/>
    </g>
   </g>
   <g id="text_7">
    <!-- 7 次 -->
    <g style="fill: #4a3b32" transform="translate(91.430766 77.381457) scale(0.09 -0.09)">
     <use xlink:href="#STSongti-SC-Black-37"/>
     <use xlink:href="#STSongti-SC-Black-20" transform="translate(46.899994 0)"/>
     <use xlink:href="#STSongti-SC-Black-6b21" transform="translate(71.899979 0)"/>
    </g>
   </g>
   <g id="text_8">
    <!-- 5 次 -->
    <g style="fill: #4a3b32" transform="translate(79.964704 48.420707) scale(0.09 -0.09)">
     <use xlink:href="#STSongti-SC-Black-35"/>
     <use xlink:href="#STSongti-SC-Black-20" transform="translate(46.899994 0)"/>
     <use xlink:href="#STSongti-SC-Black-6b21" transform="translate(71.899979 0)"/>
    </g>
   </g>
   <g id="text_9">
    <!-- 游客对步行强度及路线安排的相关反馈 -->
    <g style="fill: #8c7e72" transform="translate(178.2875 171.487925) scale(0.075 -0.075)">
     <defs>
      <path id="STSongti-SC-Black-6e38" d="M 1869 3661 
L 1434 1926 
Q 1357 1632 1357 1225 
Q 1357 819 1459 499 
Q 1485 416 1485 326 
Q 1485 109 1334 -38 
Q 1184 -186 954 -186 
Q 621 -186 621 147 
Q 621 262 691 502 
Q 762 742 762 956 
Q 762 1171 656 1289 
Q 550 1408 320 1446 
Q 243 1459 243 1481 
Q 243 1504 438 1520 
Q 634 1536 774 1584 
Q 915 1632 998 1753 
Q 1082 1875 1197 2176 
L 1760 3622 
L 1600 3910 
Q 1754 3891 1920 3891 
L 3078 3891 
Q 3168 4051 3254 4185 
Q 3341 4320 3360 4339 
Q 3379 4358 3398 4358 
Q 3475 4358 3885 3987 
Q 4013 4506 4070 5274 
Q 5120 5075 5120 4960 
Q 5120 4909 5017 4880 
Q 4915 4851 4844 4732 
Q 4774 4614 4602 4288 
L 5152 4288 
Q 5421 4806 5494 4806 
Q 5568 4806 5885 4537 
Q 6202 4269 6202 4173 
Q 6202 4077 5990 4077 
L 4480 4077 
Q 4262 3725 3981 3366 
Q 4070 3360 4205 3360 
L 4877 3360 
Q 4954 3494 5027 3606 
Q 5101 3718 5117 3734 
Q 5133 3750 5158 3750 
Q 5235 3750 5644 3478 
Q 6054 3206 6054 3091 
Q 6054 3053 6019 3027 
Q 5984 3002 5933 3002 
L 5824 3002 
Q 5491 3002 4858 2624 
Q 5350 2598 5350 2490 
Q 5350 2432 5210 2368 
L 5210 1907 
L 5248 1907 
Q 5357 2106 5440 2246 
Q 5523 2387 5542 2406 
Q 5562 2426 5581 2426 
Q 5645 2426 5942 2170 
Q 6240 1914 6240 1805 
Q 6240 1696 6080 1696 
L 5210 1696 
L 5210 51 
Q 5210 -288 5107 -400 
Q 5005 -512 4739 -576 
Q 4474 -640 4378 -640 
Q 4224 -640 4218 -499 
Q 4179 -77 3571 26 
Q 3507 -224 3241 -352 
Q 2976 -480 2771 -480 
Q 2618 -480 2605 -346 
Q 2573 -109 2454 3 
Q 2336 115 2086 186 
Q 1837 -102 1385 -368 
Q 934 -634 864 -634 
Q 845 -634 845 -621 
Q 845 -595 947 -531 
Q 1568 -128 1789 368 
Q 2010 864 2080 1609 
Q 2150 2355 2144 3680 
L 1997 3680 
Q 1933 3680 1869 3661 
z
M 3795 3680 
L 2963 3680 
Q 2944 3642 2842 3584 
L 2797 2778 
L 3034 2778 
Q 3174 3053 3232 3053 
Q 3264 3053 3488 2918 
Q 3693 3354 3795 3680 
z
M 3578 2867 
Q 3942 2637 3942 2585 
Q 3942 2534 3757 2445 
L 3731 1907 
L 4480 1907 
Q 4480 2304 4467 2656 
L 4730 2637 
L 4960 3149 
L 4282 3149 
Q 4154 3149 4051 3078 
L 3930 3296 
L 3578 2867 
z
M 2778 2566 
Q 2707 1658 2560 1126 
Q 2413 595 2138 256 
Q 2317 237 2493 237 
Q 2669 237 2790 297 
Q 2912 358 2953 489 
Q 2995 621 3043 1261 
Q 3091 1901 3110 2566 
L 2778 2566 
z
M 3718 1696 
Q 3654 627 3584 77 
Q 3987 77 4176 105 
Q 4365 134 4422 192 
Q 4480 250 4480 371 
L 4480 1696 
L 3718 1696 
z
M 2086 5178 
Q 2208 5178 2477 5101 
Q 2746 5024 2934 4854 
Q 3123 4685 3123 4496 
Q 3123 4307 2988 4169 
Q 2854 4032 2675 4032 
Q 2496 4032 2406 4131 
Q 2317 4230 2326 4342 
Q 2336 4454 2336 4531 
Q 2336 4915 2093 5107 
Q 2048 5146 2048 5162 
Q 2048 5178 2086 5178 
z
M 1786 4435 
Q 1786 4243 1648 4105 
Q 1510 3968 1331 3968 
Q 1043 3968 1043 4314 
Q 1043 4781 678 4986 
Q 608 5024 608 5043 
Q 608 5062 659 5062 
Q 870 5062 1171 4988 
Q 1472 4915 1629 4768 
Q 1786 4621 1786 4435 
z
M 269 3584 
Q 1318 3584 1318 3008 
Q 1318 2835 1190 2691 
Q 1062 2547 899 2547 
Q 736 2547 681 2614 
Q 627 2682 617 2874 
Q 608 3066 502 3238 
Q 397 3411 230 3501 
Q 166 3539 166 3561 
Q 166 3584 269 3584 
z
" transform="scale(0.015625)"/>
      <path id="STSongti-SC-Black-5ba2" d="M 3002 4346 
Q 2874 4454 2874 4640 
Q 2874 4947 2528 5126 
Q 2464 5165 2464 5184 
Q 2464 5222 2867 5222 
Q 3789 5222 3789 4710 
Q 3789 4474 3558 4346 
L 4934 4346 
Q 5082 4602 5126 4659 
Q 5171 4717 5222 4717 
Q 5274 4717 5594 4521 
Q 5914 4326 6077 4188 
Q 6240 4051 6240 3977 
Q 6240 3904 6185 3869 
Q 6131 3834 6016 3834 
L 5894 3834 
Q 5248 3834 4928 3501 
Q 5178 3341 5238 3286 
Q 5299 3232 5299 3194 
Q 5299 3123 5177 3113 
Q 5056 3104 4979 3059 
Q 4902 3014 4749 2867 
Q 4416 2534 3968 2240 
Q 4838 1958 6330 1920 
Q 6432 1914 6432 1885 
Q 6432 1856 6281 1785 
Q 6131 1715 6012 1561 
Q 5894 1408 5811 1120 
Q 5786 1050 5706 1050 
Q 5626 1050 4691 1350 
Q 5158 1062 5158 960 
Q 5158 877 4960 832 
L 4960 -122 
Q 4960 -288 4966 -365 
L 4973 -512 
Q 4973 -570 4944 -595 
Q 4915 -621 4790 -662 
Q 4666 -704 4486 -720 
Q 4307 -736 4243 -736 
Q 4179 -736 4163 -717 
Q 4147 -698 4147 -627 
L 4147 -288 
L 2432 -288 
L 2432 -525 
Q 2432 -595 2393 -620 
Q 2355 -646 2076 -713 
Q 1798 -781 1731 -781 
Q 1664 -781 1670 -704 
Q 1696 -448 1696 -262 
L 1696 1274 
Q 1338 1184 883 1101 
Q 429 1018 342 1018 
Q 256 1018 256 1050 
Q 256 1082 410 1126 
Q 1037 1293 1721 1597 
Q 2406 1901 2976 2266 
Q 2694 2541 2477 2963 
Q 2061 2598 1497 2313 
Q 934 2029 870 2029 
Q 845 2029 845 2054 
Q 845 2080 902 2125 
Q 1683 2746 1977 3174 
Q 2272 3603 2445 4134 
L 1459 4134 
Q 1498 3994 1498 3866 
Q 1498 3590 1312 3388 
Q 1126 3187 928 3187 
Q 730 3187 618 3308 
Q 506 3430 506 3564 
Q 506 3699 672 3834 
Q 1069 4160 1069 4544 
L 1050 4749 
Q 1050 4800 1075 4800 
Q 1120 4800 1235 4611 
Q 1350 4422 1382 4346 
L 3002 4346 
z
M 4832 3552 
Q 4973 3872 5037 4134 
L 2650 4134 
Q 3213 3930 3325 3866 
Q 3437 3802 3437 3757 
Q 3437 3680 3283 3657 
Q 3130 3635 2950 3450 
L 4070 3450 
Q 4205 3629 4275 3699 
Q 4346 3770 4390 3770 
Q 4480 3770 4832 3552 
z
M 2758 3238 
L 2605 3085 
Q 2899 2746 3322 2509 
Q 3821 2906 4006 3238 
L 2758 3238 
z
M 2099 1389 
Q 2266 1325 2470 1229 
L 4090 1229 
Q 4211 1421 4301 1491 
Q 3770 1690 3418 1914 
Q 2822 1606 2099 1389 
z
M 4147 -77 
L 4147 1018 
L 2554 1018 
Q 2528 973 2432 947 
L 2432 -77 
L 4147 -77 
z
" transform="scale(0.015625)"/>
      <path id="STSongti-SC-Black-5bf9" d="M 5299 3616 
Q 5446 3885 5513 3968 
Q 5581 4051 5648 4051 
Q 5715 4051 6012 3779 
Q 6310 3507 6310 3430 
Q 6310 3354 6163 3354 
L 5299 3354 
L 5299 -32 
Q 5299 -384 4998 -544 
Q 4698 -704 4326 -704 
Q 4230 -704 4185 -669 
Q 4141 -634 4128 -538 
Q 4077 -128 3392 6 
Q 3290 26 3290 58 
Q 3290 90 3398 90 
L 3776 77 
Q 4141 77 4320 147 
Q 4499 218 4499 429 
L 4499 3354 
L 3142 3354 
Q 3014 3354 2912 3283 
L 2746 3584 
Q 2899 3565 3066 3565 
L 4499 3565 
L 4499 4550 
Q 4499 5018 4486 5325 
Q 4749 5293 5037 5229 
Q 5325 5165 5398 5123 
Q 5472 5082 5472 5018 
Q 5472 4954 5299 4877 
L 5299 3616 
z
M 1728 2650 
Q 1946 3328 2010 4070 
L 582 4070 
Q 454 4070 352 4000 
L 179 4301 
Q 333 4282 499 4282 
L 1907 4282 
Q 2138 4602 2179 4643 
Q 2221 4685 2265 4685 
Q 2310 4685 2483 4582 
Q 2656 4480 2851 4336 
Q 3046 4192 3094 4134 
Q 3142 4077 3142 4032 
Q 3142 3942 3014 3923 
Q 2886 3904 2832 3811 
Q 2778 3718 2720 3501 
Q 2509 2701 2234 2106 
Q 2586 1683 2765 1356 
Q 2944 1030 2944 845 
Q 2944 506 2784 387 
Q 2624 269 2477 269 
Q 2208 269 2118 698 
Q 2042 1069 1882 1466 
Q 1434 787 835 345 
Q 237 -96 154 -96 
Q 141 -96 141 -83 
Q 141 -51 218 38 
Q 1101 998 1562 2163 
Q 1126 2970 538 3629 
Q 480 3693 480 3718 
Q 480 3744 493 3744 
Q 512 3744 576 3702 
Q 640 3661 1033 3312 
Q 1427 2963 1728 2650 
z
M 2995 2957 
Q 3098 2957 3437 2819 
Q 3776 2682 3955 2477 
Q 4134 2272 4134 2032 
Q 4134 1792 4003 1635 
Q 3872 1478 3677 1478 
Q 3482 1478 3382 1612 
Q 3283 1747 3309 1978 
Q 3315 2048 3315 2118 
Q 3315 2611 3021 2861 
Q 2963 2912 2963 2934 
Q 2963 2957 2995 2957 
z
" transform="scale(0.015625)"/>
      <path id="STSongti-SC-Black-5f3a" d="M 3565 4742 
L 4666 4742 
Q 4813 5037 4845 5069 
Q 4877 5101 4960 5101 
Q 5043 5101 5395 4877 
Q 5747 4653 5747 4569 
Q 5747 4486 5568 4435 
L 5568 4032 
Q 5568 3693 5574 3597 
L 5581 3418 
Q 5581 3386 5552 3357 
Q 5523 3328 5427 3289 
Q 5331 3251 5132 3219 
Q 4934 3187 4867 3187 
Q 4800 3187 4787 3219 
Q 4774 3251 4774 3334 
L 4774 3411 
L 4544 3411 
Q 4544 3366 4480 3347 
L 4480 2733 
L 4960 2733 
Q 5069 2944 5113 3008 
Q 5158 3072 5229 3072 
Q 5325 3072 5520 2931 
Q 5715 2790 5852 2681 
Q 5990 2573 5990 2489 
Q 5990 2406 5798 2368 
L 5798 1901 
Q 5798 1562 5805 1466 
L 5811 1286 
Q 5811 1242 5785 1219 
Q 5760 1197 5651 1152 
Q 5542 1107 5340 1081 
Q 5139 1056 5097 1056 
Q 5056 1056 5043 1088 
Q 5030 1120 5030 1203 
L 5030 1312 
L 4480 1312 
L 4480 352 
L 5178 378 
Q 5094 666 4877 864 
Q 4800 934 4800 956 
Q 4800 979 4832 979 
Q 4915 979 5296 806 
Q 5677 634 5869 416 
Q 6061 198 6061 -67 
Q 6061 -333 5923 -470 
Q 5786 -608 5594 -608 
Q 5248 -608 5248 -186 
Q 5248 45 5222 198 
Q 3949 -96 3462 -240 
Q 2976 -384 2726 -518 
Q 2675 -544 2643 -544 
Q 2611 -544 2598 -506 
L 2502 -230 
Q 2426 0 2349 320 
Q 2810 314 3789 333 
L 3789 1312 
L 3283 1312 
L 3283 1178 
Q 3283 1120 3209 1072 
Q 3136 1024 2950 982 
Q 2765 941 2624 941 
Q 2573 941 2573 992 
L 2586 1274 
Q 2598 1466 2598 1626 
L 2598 2438 
Q 2598 2720 2579 2995 
Q 2976 2880 3264 2733 
L 3789 2733 
L 3789 3411 
L 3571 3411 
L 3571 3341 
Q 3571 3277 3497 3235 
Q 3424 3194 3200 3149 
Q 2976 3104 2816 3104 
Q 2765 3104 2765 3155 
L 2778 3437 
Q 2790 3629 2790 3789 
L 2790 4461 
Q 2790 4742 2771 5018 
Q 3328 4845 3565 4742 
z
M 4774 3622 
L 4774 4531 
L 3680 4531 
Q 3648 4474 3571 4448 
L 3571 3622 
L 4774 3622 
z
M 3789 2522 
L 3398 2522 
Q 3366 2477 3283 2445 
L 3283 1523 
L 3789 1523 
L 3789 2522 
z
M 5030 1523 
L 5030 2522 
L 4480 2522 
L 4480 1523 
L 5030 1523 
z
M 1670 3443 
L 1670 4467 
L 582 4467 
Q 461 4467 352 4422 
L 186 4710 
Q 365 4678 506 4678 
L 1510 4678 
Q 1658 4973 1686 5008 
Q 1715 5043 1776 5043 
Q 1837 5043 2185 4844 
Q 2534 4646 2534 4560 
Q 2534 4474 2374 4390 
L 2374 3814 
Q 2374 3558 2384 3379 
Q 2394 3200 2394 3171 
Q 2394 3142 2365 3116 
Q 2336 3091 2246 3059 
Q 2157 3027 1974 2992 
Q 1792 2957 1731 2957 
Q 1670 2957 1670 3021 
L 1670 3232 
L 1331 3232 
Q 1312 3174 1242 3155 
L 1139 2138 
L 1459 2138 
Q 1626 2496 1734 2496 
Q 1805 2496 2089 2329 
Q 2374 2163 2444 2096 
Q 2515 2029 2515 1978 
Q 2515 1888 2317 1818 
Q 2291 1280 2243 752 
Q 2195 224 2137 45 
Q 2080 -134 1955 -268 
Q 1830 -403 1606 -486 
Q 1382 -570 1197 -570 
Q 1101 -570 1088 -467 
Q 1050 -224 909 -115 
Q 768 -6 448 77 
Q 352 102 352 128 
Q 352 154 457 150 
Q 563 147 819 147 
Q 1075 147 1225 204 
Q 1376 262 1421 377 
Q 1466 493 1507 749 
Q 1549 1005 1581 1926 
L 1114 1926 
L 1018 1798 
Q 986 1754 925 1754 
Q 864 1754 621 1843 
Q 378 1933 301 1974 
Q 224 2016 224 2057 
Q 224 2099 275 2144 
Q 416 2266 429 2432 
L 493 3347 
Q 512 3578 506 3770 
Q 960 3622 1306 3443 
L 1670 3443 
z
" transform="scale(0.015625)"/>
      <path id="STSongti-SC-Black-5ea6" d="M 3264 4365 
Q 3200 4410 3165 4467 
Q 3130 4525 3130 4595 
L 3136 4749 
Q 3136 4915 3091 4995 
Q 3046 5075 2924 5145 
Q 2803 5216 2803 5229 
Q 2803 5254 3053 5254 
Q 3482 5254 3747 5113 
Q 4013 4973 4013 4755 
Q 4013 4512 3795 4365 
L 5018 4365 
Q 5094 4512 5200 4665 
Q 5306 4819 5341 4857 
Q 5376 4896 5408 4896 
Q 5466 4896 5846 4617 
Q 6227 4339 6227 4246 
Q 6227 4154 6035 4154 
L 4320 4154 
Q 5037 4083 5037 3987 
Q 5037 3936 4883 3859 
L 4883 3360 
L 5120 3360 
Q 5190 3507 5283 3644 
Q 5376 3782 5405 3814 
Q 5434 3846 5466 3846 
Q 5549 3846 5894 3571 
Q 6240 3296 6240 3206 
Q 6240 3149 6099 3149 
L 4883 3149 
L 4883 2464 
Q 4883 2330 4890 2272 
L 4896 2157 
Q 4896 2042 4474 2003 
Q 4512 2003 4889 1843 
Q 5267 1683 5334 1635 
Q 5402 1587 5402 1542 
Q 5402 1478 5302 1462 
Q 5203 1446 5142 1385 
Q 5082 1325 4790 982 
Q 4499 640 4237 422 
Q 5024 198 6214 198 
Q 6291 198 6291 166 
Q 6291 134 6195 90 
Q 5997 0 5849 -208 
Q 5702 -416 5645 -640 
Q 5619 -717 5526 -717 
Q 5434 -717 4746 -499 
Q 4058 -282 3603 0 
Q 2931 -365 2131 -489 
Q 1331 -614 909 -614 
Q 794 -614 794 -572 
Q 794 -531 947 -499 
Q 2221 -256 3149 346 
Q 2688 787 2426 1472 
L 2291 1472 
Q 2163 1472 2061 1402 
L 1894 1702 
Q 2048 1683 2214 1683 
L 4211 1683 
Q 4403 2003 4429 1997 
Q 4211 1984 4166 2009 
Q 4122 2035 4122 2150 
L 4122 2266 
L 3168 2266 
L 3168 2208 
Q 3168 2067 2976 2012 
Q 2784 1958 2643 1958 
Q 2502 1958 2464 1980 
Q 2426 2003 2426 2061 
L 2432 2272 
Q 2438 2400 2438 2842 
L 2438 3149 
L 2074 3149 
Q 1946 3149 1843 3078 
L 1715 3309 
Q 1683 1626 1459 989 
Q 1235 352 796 -169 
Q 358 -691 294 -691 
Q 282 -691 282 -665 
Q 282 -640 320 -576 
Q 659 -32 816 672 
Q 973 1376 973 2384 
Q 973 3392 947 4646 
Q 1440 4538 1837 4365 
L 3264 4365 
z
M 2419 4154 
L 1766 4154 
Q 1722 4083 1722 4006 
Q 1722 3565 1715 3373 
Q 1843 3360 1997 3360 
L 2438 3360 
L 2438 3718 
Q 2438 3923 2419 4154 
z
M 4109 4154 
L 2733 4154 
Q 3021 4122 3171 4090 
Q 3322 4058 3322 3997 
Q 3322 3936 3168 3859 
L 3168 3360 
L 4122 3360 
L 4122 3834 
Q 4122 3968 4109 4154 
z
M 4122 3149 
L 3168 3149 
L 3168 2477 
L 4122 2477 
L 4122 3149 
z
M 3584 666 
Q 4013 1043 4218 1472 
L 2586 1472 
Q 2931 979 3584 666 
z
" transform="scale(0.015625)"/>
      <path id="STSongti-SC-Black-53ca" d="M 3866 384 
Q 3398 64 2848 -144 
Q 2298 -352 1709 -470 
Q 1120 -589 1030 -589 
Q 941 -589 941 -557 
Q 941 -525 1056 -493 
Q 1722 -320 2378 9 
Q 3034 339 3520 762 
Q 2682 1805 2534 3334 
Q 2400 2368 2198 1744 
Q 1997 1120 1625 633 
Q 1254 147 739 -198 
Q 224 -544 154 -544 
Q 134 -544 134 -521 
Q 134 -499 179 -461 
Q 749 64 1062 569 
Q 1376 1075 1523 1648 
Q 1670 2221 1737 2857 
Q 1805 3494 1811 4557 
L 1062 4557 
Q 890 4557 794 4512 
L 678 4800 
Q 813 4768 998 4768 
L 4006 4768 
Q 4051 4864 4134 4998 
Q 4218 5133 4246 5155 
Q 4275 5178 4314 5178 
Q 4416 5178 4813 4954 
Q 5210 4730 5210 4624 
Q 5210 4518 5024 4506 
Q 4941 4499 4896 4476 
Q 4851 4454 4819 4365 
L 4346 3098 
L 4698 3098 
Q 4800 3290 4854 3357 
Q 4909 3424 4960 3424 
Q 5050 3424 5338 3248 
Q 5626 3072 5728 2995 
Q 5830 2918 5830 2861 
Q 5830 2784 5696 2771 
Q 5626 2765 5584 2729 
Q 5542 2694 5498 2579 
Q 5107 1542 4448 877 
Q 5024 448 6150 275 
Q 6291 256 6291 227 
Q 6291 198 6137 153 
Q 5984 109 5747 -89 
Q 5510 -288 5449 -448 
Q 5389 -608 5267 -608 
Q 5229 -608 5177 -589 
Q 5126 -570 4860 -403 
Q 4595 -237 4342 -38 
Q 4090 160 3866 384 
z
M 3987 1267 
Q 4525 1997 4710 2886 
L 4237 2886 
L 4109 2739 
Q 4064 2682 4009 2682 
Q 3955 2682 3712 2858 
Q 3469 3034 3469 3078 
Q 3469 3123 3514 3149 
Q 3712 3277 3795 3552 
L 4096 4557 
L 2720 4557 
Q 2662 4467 2649 4310 
Q 2637 4154 2605 3859 
Q 2861 2291 3987 1267 
z
" transform="scale(0.015625)"/>
      <path id="STSongti-SC-Black-7ebf" d="M 4109 5005 
Q 4205 5011 4301 5011 
Q 4749 5011 5017 4873 
Q 5286 4736 5286 4512 
Q 5286 4378 5190 4250 
Q 5478 4090 5635 3971 
Q 5792 3853 5792 3763 
Q 5792 3674 5606 3635 
L 4000 3322 
Q 4026 2854 4051 2630 
L 4947 2829 
Q 5037 3072 5107 3238 
Q 5178 3405 5206 3440 
Q 5235 3475 5267 3475 
Q 5344 3475 5609 3312 
Q 5875 3149 5996 3062 
Q 6118 2976 6118 2889 
Q 6118 2803 5965 2771 
L 4083 2381 
Q 4179 1766 4339 1370 
Q 4768 1882 4947 2445 
Q 5389 2272 5625 2163 
Q 5862 2054 5891 2028 
Q 5920 2003 5920 1978 
Q 5920 1920 5782 1881 
Q 5645 1843 5491 1651 
Q 5075 1126 4685 794 
Q 4826 634 5027 512 
Q 5229 390 5315 390 
Q 5402 390 5459 428 
Q 5517 467 5629 694 
Q 5741 922 5843 1165 
Q 5946 1408 5974 1408 
Q 6003 1408 6003 1363 
Q 6003 1318 5990 1267 
Q 5875 826 5875 490 
Q 5875 154 6118 -166 
Q 6176 -250 6176 -358 
Q 6176 -467 6061 -553 
Q 5946 -640 5734 -640 
Q 5363 -640 4896 -384 
Q 4429 -128 4070 352 
Q 3526 19 2652 -237 
Q 1779 -493 1664 -493 
Q 1600 -493 1600 -454 
Q 1600 -416 1734 -365 
Q 2989 141 3789 813 
Q 3539 1344 3392 2234 
L 2694 2093 
Q 2579 2086 2470 1990 
L 2272 2298 
Q 2349 2291 2425 2291 
Q 2502 2291 2592 2310 
L 3354 2477 
Q 3296 2867 3264 3181 
L 2880 3104 
Q 2752 3085 2656 3002 
L 2541 3181 
Q 1914 2419 1267 1709 
L 2758 1760 
Q 2906 1760 2906 1718 
Q 2906 1677 2739 1632 
Q 1971 1414 1571 1270 
Q 1171 1126 774 928 
Q 717 896 672 896 
Q 627 896 611 918 
Q 595 941 483 1293 
Q 371 1645 371 1721 
Q 371 1798 499 1805 
Q 704 1811 889 1907 
Q 1075 2003 1196 2195 
Q 1318 2387 1574 2880 
Q 1018 2701 646 2464 
Q 589 2426 550 2426 
Q 512 2426 489 2461 
Q 467 2496 348 2816 
Q 230 3136 230 3200 
Q 230 3302 339 3315 
Q 448 3328 541 3379 
Q 634 3430 685 3500 
Q 736 3571 861 3910 
Q 986 4250 1059 4534 
Q 1133 4819 1197 5184 
Q 1574 5043 1878 4905 
Q 2182 4768 2214 4739 
Q 2246 4710 2246 4678 
Q 2246 4614 2112 4589 
Q 2054 4576 1990 4518 
Q 1926 4461 1558 4000 
Q 1190 3539 877 3162 
L 1702 3155 
Q 1933 3661 2086 4102 
Q 2304 4006 2624 3840 
Q 2944 3674 2976 3638 
Q 3008 3603 3008 3571 
Q 3008 3507 2915 3481 
Q 2822 3456 2656 3302 
L 3245 3411 
L 3117 5274 
Q 3398 5261 3715 5216 
Q 4032 5171 4089 5145 
Q 4147 5120 4147 5085 
Q 4147 5050 4109 5005 
z
M 4806 4032 
Q 4589 4090 4531 4269 
Q 4429 4589 4326 4704 
Q 4224 4819 4019 4915 
Q 4006 4909 3981 4883 
Q 3974 4614 3974 4291 
Q 3974 3968 3987 3558 
L 4685 3693 
Q 4749 3885 4806 4032 
z
M 256 448 
Q 1018 518 1734 659 
L 2842 870 
Q 2899 870 2899 835 
Q 2899 800 2829 768 
Q 1261 19 672 -365 
Q 614 -397 588 -397 
Q 563 -397 547 -377 
Q 531 -358 432 -102 
Q 333 154 256 448 
z
" transform="scale(0.015625)"/>
      <path id="STSongti-SC-Black-5b89" d="M 2534 5184 
Q 3117 5184 3421 5017 
Q 3725 4851 3725 4570 
Q 3725 4358 3571 4240 
Q 3418 4122 3149 4122 
Q 3002 4122 2906 4224 
Q 2810 4326 2810 4486 
Q 2810 4915 2464 5062 
Q 2381 5101 2381 5142 
Q 2381 5184 2534 5184 
z
M 1363 4077 
L 4896 4077 
Q 5075 4454 5190 4454 
Q 5254 4454 5452 4320 
Q 5651 4186 5820 4045 
Q 5990 3904 6064 3817 
Q 6138 3731 6138 3654 
Q 6138 3578 6074 3539 
Q 6010 3501 5850 3526 
Q 5690 3552 5536 3552 
Q 5382 3552 5241 3485 
Q 5101 3418 4944 3251 
Q 4787 3085 4768 3085 
Q 4749 3085 4749 3110 
Q 4749 3136 4774 3219 
Q 4864 3475 4928 3866 
L 1421 3866 
Q 1440 3776 1440 3686 
Q 1440 3379 1261 3212 
Q 1082 3046 851 3046 
Q 621 3046 512 3161 
Q 403 3277 403 3430 
Q 403 3616 627 3731 
Q 851 3846 940 3955 
Q 1030 4064 1030 4182 
Q 1030 4301 1017 4374 
Q 1005 4448 1005 4480 
Q 1005 4512 1024 4512 
Q 1062 4512 1177 4381 
Q 1293 4250 1363 4077 
z
M 1952 2112 
L 570 2112 
Q 410 2112 326 2074 
L 218 2355 
Q 346 2323 512 2323 
L 2054 2323 
Q 2451 3181 2650 3808 
Q 2976 3718 3225 3619 
Q 3475 3520 3539 3478 
Q 3603 3437 3603 3392 
Q 3603 3347 3497 3321 
Q 3392 3296 3328 3168 
L 2854 2323 
L 4870 2323 
Q 4992 2515 5101 2665 
Q 5210 2816 5242 2851 
Q 5274 2886 5318 2886 
Q 5414 2886 5798 2585 
Q 6182 2285 6182 2198 
Q 6182 2112 6003 2112 
L 4934 2112 
Q 4845 1990 4742 1939 
Q 4416 1203 4128 864 
Q 4864 582 5174 300 
Q 5485 19 5485 -250 
Q 5485 -403 5360 -534 
Q 5235 -666 5101 -666 
Q 4896 -666 4608 -339 
Q 4237 90 3648 403 
Q 3219 70 2662 -170 
Q 2106 -410 1434 -538 
Q 762 -666 486 -666 
Q 403 -666 403 -630 
Q 403 -595 531 -557 
Q 2323 -58 3072 659 
Q 2349 941 1382 1069 
Q 1779 1760 1952 2112 
z
M 3872 2112 
L 2733 2112 
L 2240 1274 
Q 2835 1229 3437 1082 
Q 3744 1504 3872 2112 
z
" transform="scale(0.015625)"/>
      <path id="STSongti-SC-Black-6392" d="M 4909 3910 
L 5114 3910 
Q 5382 4397 5485 4397 
Q 5555 4397 5865 4121 
Q 6176 3846 6176 3772 
Q 6176 3699 6061 3699 
L 4909 3699 
L 4909 2637 
L 5094 2637 
Q 5248 2925 5315 3033 
Q 5382 3142 5434 3142 
Q 5510 3142 5792 2857 
Q 6074 2573 6074 2499 
Q 6074 2426 5965 2426 
L 4909 2426 
L 4909 1274 
L 5126 1274 
Q 5280 1568 5369 1702 
Q 5459 1837 5510 1837 
Q 5594 1837 5933 1523 
Q 6272 1210 6272 1136 
Q 6272 1062 6150 1062 
L 4909 1062 
L 4909 186 
Q 4909 -128 4915 -250 
L 4922 -480 
Q 4922 -576 4710 -653 
Q 4499 -730 4262 -730 
Q 4211 -730 4201 -707 
Q 4192 -685 4192 -634 
L 4192 4698 
Q 4192 5171 4179 5267 
Q 4454 5261 4704 5229 
Q 4954 5197 5011 5165 
Q 5069 5133 5069 5094 
Q 5069 5018 4909 4954 
L 4909 3910 
z
M 1120 3603 
L 589 3603 
Q 435 3603 314 3565 
L 205 3840 
Q 352 3814 525 3814 
L 1120 3814 
L 1120 4563 
Q 1120 4954 1094 5254 
Q 1990 5216 1990 5069 
Q 1990 4998 1830 4934 
L 1830 3814 
L 1952 3814 
Q 2112 4141 2150 4185 
Q 2189 4230 2227 4230 
Q 2304 4230 2605 3923 
L 3066 3923 
L 3066 4659 
Q 3066 4979 3053 5229 
Q 3315 5216 3558 5187 
Q 3802 5158 3853 5132 
Q 3904 5107 3904 5052 
Q 3904 4998 3750 4922 
L 3750 -371 
Q 3750 -416 3734 -441 
Q 3718 -467 3596 -534 
Q 3475 -602 3289 -621 
Q 3104 -640 3072 -640 
Q 3040 -640 3040 -589 
L 3053 -288 
Q 3066 26 3066 282 
L 3066 1075 
L 2438 1075 
Q 2310 1075 2208 1005 
L 2042 1306 
Q 2195 1286 2362 1286 
L 3066 1286 
L 3066 2438 
L 2541 2438 
Q 2413 2438 2310 2368 
L 2176 2611 
Q 2042 2534 1830 2394 
L 1830 186 
Q 1830 -90 1776 -214 
Q 1722 -339 1610 -412 
Q 1498 -486 1299 -537 
Q 1101 -589 995 -589 
Q 890 -589 877 -461 
Q 858 -250 768 -141 
Q 678 -32 486 25 
Q 294 83 294 108 
Q 294 134 371 134 
L 646 128 
Q 896 128 1008 182 
Q 1120 237 1120 422 
L 1120 1894 
Q 877 1715 736 1584 
Q 595 1453 569 1453 
Q 544 1453 521 1488 
Q 499 1523 406 1763 
Q 314 2003 218 2317 
Q 557 2374 1120 2534 
L 1120 3603 
z
M 2778 3712 
Q 2803 3674 2803 3638 
Q 2803 3603 2694 3603 
L 1830 3603 
L 1830 2746 
Q 2483 2963 2617 3020 
Q 2752 3078 2790 3078 
Q 2829 3078 2829 3066 
Q 2829 3027 2669 2934 
Q 2509 2842 2240 2656 
Q 2330 2650 2464 2650 
L 3066 2650 
L 3066 3712 
L 2778 3712 
z
" transform="scale(0.015625)"/>
      <path id="STSongti-SC-Black-7684" d="M 3494 2739 
Q 3443 2714 3257 2528 
Q 3072 2342 3053 2342 
Q 3034 2342 3034 2364 
Q 3034 2387 3072 2458 
Q 3629 3475 3750 5267 
Q 4122 5184 4438 5081 
Q 4755 4979 4803 4944 
Q 4851 4909 4851 4861 
Q 4851 4813 4726 4781 
Q 4602 4749 4544 4614 
L 4186 3827 
L 5126 3827 
Q 5306 4211 5414 4211 
Q 5485 4211 5721 4057 
Q 5958 3904 6112 3789 
Q 6266 3674 6266 3587 
Q 6266 3501 5984 3430 
Q 5978 2477 5936 1437 
Q 5894 397 5827 99 
Q 5760 -198 5581 -355 
Q 5402 -512 5120 -553 
Q 4838 -595 4713 -595 
Q 4589 -595 4550 -560 
Q 4512 -525 4496 -358 
Q 4480 -192 4326 -64 
Q 4173 64 3859 141 
Q 3738 173 3738 195 
Q 3738 218 3834 218 
L 4288 211 
Q 4678 211 4844 268 
Q 5011 326 5072 505 
Q 5133 685 5177 1597 
Q 5222 2509 5222 3616 
L 4077 3616 
Q 3808 3136 3507 2790 
Q 4090 2630 4384 2412 
Q 4678 2195 4678 1926 
Q 4678 1658 4547 1510 
Q 4416 1363 4211 1363 
Q 4006 1363 3942 1449 
Q 3878 1536 3878 1830 
Q 3878 2515 3494 2739 
z
M 1363 3808 
Q 1402 4198 1402 4528 
Q 1402 4858 1376 5216 
Q 1702 5184 2012 5133 
Q 2323 5082 2400 5050 
Q 2477 5018 2477 4976 
Q 2477 4934 2368 4886 
Q 2259 4838 2134 4646 
Q 2010 4454 1690 3808 
L 2240 3808 
Q 2323 3987 2387 4070 
Q 2451 4154 2518 4154 
Q 2586 4154 2915 3942 
Q 3245 3731 3245 3644 
Q 3245 3558 3008 3501 
L 3008 768 
Q 3008 467 3014 346 
L 3021 128 
Q 3021 45 2966 6 
Q 2912 -32 2761 -83 
Q 2611 -134 2413 -134 
Q 2304 -134 2304 13 
L 2304 320 
L 1286 320 
L 1286 -64 
Q 1286 -134 1241 -176 
Q 1197 -218 1037 -256 
Q 877 -294 736 -294 
Q 595 -294 579 -275 
Q 563 -256 563 -205 
L 576 96 
Q 589 410 589 666 
L 589 3379 
Q 589 3770 576 4045 
Q 928 3962 1325 3808 
L 1363 3808 
z
M 1286 2298 
L 2304 2298 
L 2304 3597 
L 1414 3597 
Q 1389 3456 1286 3411 
L 1286 2298 
z
M 2304 2086 
L 1286 2086 
L 1286 531 
L 2304 531 
L 2304 2086 
z
" transform="scale(0.015625)"/>
      <path id="STSongti-SC-Black-76f8" d="M 2067 3744 
L 2227 3744 
Q 2272 3834 2381 4006 
Q 2490 4179 2522 4195 
Q 2554 4211 2586 4211 
Q 2618 4211 2659 4188 
Q 2701 4166 2905 4000 
Q 3110 3834 3226 3706 
L 3226 4109 
Q 3226 4499 3213 4774 
Q 3693 4666 4064 4480 
L 4922 4480 
Q 5082 4762 5133 4813 
Q 5184 4864 5261 4864 
Q 5338 4864 5485 4774 
Q 5632 4685 5808 4550 
Q 5984 4416 6035 4365 
Q 6086 4314 6086 4266 
Q 6086 4218 5888 4134 
L 5888 384 
Q 5888 83 5894 -32 
L 5901 -250 
Q 5901 -301 5840 -349 
Q 5779 -397 5590 -445 
Q 5402 -493 5248 -493 
Q 5094 -493 5065 -477 
Q 5037 -461 5037 -378 
L 5037 70 
L 4013 70 
L 4013 -358 
Q 4013 -422 3977 -454 
Q 3942 -486 3753 -528 
Q 3565 -570 3414 -570 
Q 3264 -570 3232 -560 
Q 3200 -550 3200 -512 
L 3213 -211 
Q 3226 102 3226 358 
L 3226 3546 
Q 3174 3533 3130 3533 
L 2067 3533 
L 2067 2995 
Q 3117 2790 3117 2246 
Q 3117 2093 2950 1942 
Q 2784 1792 2646 1792 
Q 2509 1792 2416 1872 
Q 2323 1952 2323 2131 
Q 2323 2515 2067 2797 
L 2067 -416 
Q 2067 -480 2000 -521 
Q 1933 -563 1744 -608 
Q 1555 -653 1395 -653 
Q 1338 -653 1338 -582 
L 1350 -320 
Q 1357 -51 1357 275 
L 1357 2176 
Q 1146 1587 691 1046 
Q 237 506 166 506 
Q 147 506 147 541 
Q 147 576 186 640 
Q 966 1946 1235 3533 
L 608 3533 
Q 480 3533 378 3462 
L 179 3763 
Q 333 3744 499 3744 
L 1357 3744 
L 1357 4448 
Q 1357 4870 1338 5178 
Q 1600 5171 1827 5136 
Q 2054 5101 2140 5072 
Q 2227 5043 2227 4992 
Q 2227 4941 2067 4877 
L 2067 3744 
z
M 4013 3162 
L 5037 3162 
L 5037 4269 
L 4115 4269 
Q 4096 4173 4013 4141 
L 4013 3162 
z
M 5037 2950 
L 4013 2950 
L 4013 1824 
L 5037 1824 
L 5037 2950 
z
M 5037 282 
L 5037 1613 
L 4013 1613 
L 4013 282 
L 5037 282 
z
" transform="scale(0.015625)"/>
      <path id="STSongti-SC-Black-5173" d="M 3546 3616 
Q 3827 4403 3904 5312 
Q 4333 5203 4605 5110 
Q 4877 5018 4976 4963 
Q 5075 4909 5075 4854 
Q 5075 4800 4979 4774 
Q 4883 4749 4822 4710 
Q 4762 4672 4659 4569 
Q 4557 4467 4320 4198 
L 3827 3616 
L 4570 3616 
Q 4678 3827 4774 3977 
Q 4870 4128 4892 4147 
Q 4915 4166 4947 4166 
Q 5030 4166 5417 3862 
Q 5805 3558 5805 3481 
Q 5805 3405 5638 3405 
L 3597 3405 
Q 3584 3373 3501 3322 
Q 3450 2624 3379 2189 
L 4928 2189 
Q 5005 2336 5113 2512 
Q 5222 2688 5257 2729 
Q 5293 2771 5334 2771 
Q 5376 2771 5529 2668 
Q 5683 2566 5897 2396 
Q 6112 2227 6173 2156 
Q 6234 2086 6234 2048 
Q 6234 1978 6067 1978 
L 3552 1978 
Q 3827 1286 4425 848 
Q 5024 410 6118 160 
Q 6214 141 6214 112 
Q 6214 83 6112 51 
Q 5869 -26 5648 -205 
Q 5427 -384 5350 -557 
Q 5312 -640 5248 -640 
Q 5139 -640 4656 -326 
Q 4173 -13 3862 515 
Q 3552 1043 3398 1978 
L 3347 1978 
Q 3264 1491 3117 1164 
Q 2970 838 2720 531 
Q 2470 224 2044 -38 
Q 1619 -301 1030 -509 
Q 442 -717 288 -717 
Q 243 -717 243 -704 
Q 243 -666 397 -602 
Q 1549 -109 2006 476 
Q 2464 1062 2541 1978 
L 608 1978 
Q 442 1978 333 1946 
L 224 2221 
Q 358 2189 544 2189 
L 2566 2189 
Q 2611 2662 2611 3405 
L 1005 3405 
Q 838 3405 730 3373 
L 621 3648 
Q 755 3616 941 3616 
L 3546 3616 
z
M 1530 5101 
Q 1683 5101 2035 4992 
Q 2387 4883 2547 4771 
Q 2707 4659 2768 4528 
Q 2829 4397 2829 4214 
Q 2829 4032 2685 3878 
Q 2541 3725 2355 3725 
Q 2170 3725 2070 3833 
Q 1971 3942 1971 4147 
Q 1971 4749 1555 5011 
Q 1485 5056 1485 5078 
Q 1485 5101 1530 5101 
z
" transform="scale(0.015625)"/>
      <path id="STSongti-SC-Black-53cd" d="M 2067 4314 
Q 2733 4442 3536 4714 
Q 4339 4986 4806 5242 
Q 4992 5107 5261 4816 
Q 5530 4525 5571 4457 
Q 5613 4390 5613 4352 
Q 5613 4282 5510 4282 
Q 5472 4282 5421 4294 
Q 5274 4326 4957 4326 
Q 4640 4326 4198 4301 
L 2067 4173 
Q 2022 4128 2022 3962 
Q 2022 3616 2010 3104 
L 4186 3104 
Q 4365 3443 4406 3488 
Q 4448 3533 4499 3533 
Q 4608 3533 5033 3257 
Q 5459 2982 5459 2864 
Q 5459 2746 5286 2714 
Q 5184 2694 5126 2624 
Q 5069 2554 4973 2317 
Q 4646 1504 4147 941 
Q 4915 461 6227 205 
Q 6355 179 6355 140 
Q 6355 102 6172 60 
Q 5990 19 5785 -173 
Q 5581 -365 5459 -621 
Q 5434 -678 5379 -678 
Q 5325 -678 5261 -652 
Q 5197 -627 4832 -419 
Q 4467 -211 4163 0 
Q 3859 211 3616 435 
Q 3206 102 2723 -122 
Q 2240 -346 1731 -474 
Q 1222 -602 1129 -602 
Q 1037 -602 1037 -570 
Q 1037 -538 1120 -506 
Q 2419 -26 3226 864 
Q 2624 1638 2496 2893 
L 1997 2893 
Q 1984 2285 1923 1785 
Q 1862 1286 1673 864 
Q 1485 442 1219 115 
Q 954 -211 659 -435 
Q 365 -659 307 -659 
Q 294 -659 294 -636 
Q 294 -614 346 -550 
Q 691 -134 883 304 
Q 1075 742 1152 1244 
Q 1229 1747 1229 2640 
Q 1229 3533 1165 4595 
Q 1581 4512 2067 4314 
z
M 3603 1350 
Q 4090 2067 4237 2893 
L 2675 2893 
Q 2963 1939 3603 1350 
z
" transform="scale(0.015625)"/>
      <path id="STSongti-SC-Black-9988" d="M 3731 4499 
Q 3731 5043 3718 5280 
Q 4288 5229 4441 5184 
Q 4595 5139 4595 5088 
Q 4595 5018 4442 4966 
L 4442 4499 
L 4915 4499 
Q 4992 4653 5053 4739 
Q 5114 4826 5158 4826 
Q 5222 4826 5580 4637 
Q 5939 4448 5939 4358 
Q 5939 4262 5709 4224 
L 5709 3757 
Q 5709 3648 5715 3565 
L 5728 3424 
Q 5728 3386 5702 3366 
Q 5677 3347 5549 3296 
Q 5421 3245 5273 3229 
Q 5126 3213 5068 3213 
Q 5011 3213 4995 3232 
Q 4979 3251 4979 3309 
L 4979 3411 
L 4442 3411 
L 4442 2893 
L 5286 2893 
Q 5446 3155 5516 3235 
Q 5587 3315 5657 3315 
Q 5728 3315 6038 3068 
Q 6349 2822 6349 2752 
Q 6349 2682 6240 2682 
L 2349 2682 
Q 2221 2682 2118 2611 
L 1952 2912 
Q 2106 2893 2272 2893 
L 3731 2893 
L 3731 3411 
L 3206 3411 
L 3206 3347 
Q 3206 3302 3177 3276 
Q 3149 3251 2973 3206 
Q 2797 3162 2579 3162 
Q 2541 3162 2541 3200 
L 2554 3546 
Q 2131 3571 1690 2950 
Q 1811 2925 1811 2861 
Q 1811 2797 1664 2733 
L 1664 608 
Q 2368 998 2432 998 
Q 2445 998 2445 992 
Q 2445 966 2368 883 
Q 1760 218 1306 -525 
Q 1254 -608 1216 -608 
Q 1178 -608 1066 -448 
Q 954 -288 816 -48 
Q 678 192 678 230 
Q 678 269 764 317 
Q 851 365 899 425 
Q 947 486 947 582 
L 947 2483 
Q 947 2771 934 3002 
Q 736 2662 464 2326 
Q 192 1990 166 1990 
Q 160 1990 160 2003 
Q 160 2029 205 2118 
Q 544 2842 694 3504 
Q 845 4166 909 5152 
Q 1280 5082 1571 4989 
Q 1862 4896 1897 4870 
Q 1933 4845 1933 4797 
Q 1933 4749 1821 4710 
Q 1709 4672 1670 4570 
L 1376 3885 
L 1696 3885 
Q 1805 4083 1853 4131 
Q 1901 4179 1945 4179 
Q 1990 4179 2192 4067 
Q 2394 3955 2554 3827 
L 2554 4192 
Q 2554 4461 2534 4736 
Q 2918 4653 3226 4499 
L 3731 4499 
z
M 3731 3622 
L 3731 4288 
L 3309 4288 
Q 3296 4224 3206 4192 
L 3206 3622 
L 3731 3622 
z
M 4442 4288 
L 4442 3622 
L 4979 3622 
L 4979 4288 
L 4442 4288 
z
M 1280 3674 
Q 1146 3386 973 3059 
Q 1389 3014 1638 2963 
Q 1709 3232 1779 3674 
L 1280 3674 
z
M 3213 2285 
L 4832 2285 
Q 5024 2605 5104 2605 
Q 5184 2605 5523 2403 
Q 5862 2202 5862 2115 
Q 5862 2029 5677 1978 
L 5677 1395 
Q 5677 1069 5683 960 
L 5690 762 
Q 5690 710 5661 678 
Q 5632 646 5430 604 
Q 5229 563 4998 563 
Q 4902 563 4902 646 
L 4902 2074 
L 3277 2074 
Q 3264 2016 3181 1990 
L 3181 672 
Q 3181 614 3165 592 
Q 3149 570 3030 531 
Q 2912 493 2736 461 
Q 2560 429 2470 429 
Q 2432 429 2432 480 
L 2445 781 
Q 2458 1094 2458 1350 
L 2458 1907 
Q 2458 2298 2445 2573 
Q 2893 2470 3213 2285 
z
M 4154 422 
Q 3955 58 3568 -198 
Q 3181 -454 2573 -588 
Q 1965 -723 1651 -723 
Q 1574 -723 1574 -704 
Q 1574 -685 1690 -659 
Q 2253 -550 2697 -297 
Q 3142 -45 3350 227 
Q 3558 499 3628 857 
Q 3699 1216 3699 1978 
Q 3904 1965 4182 1926 
Q 4461 1888 4512 1862 
Q 4563 1837 4563 1798 
Q 4563 1760 4508 1725 
Q 4454 1690 4435 1642 
Q 4416 1594 4403 1498 
Q 4314 762 4198 525 
Q 6010 397 6010 -307 
Q 6010 -486 5894 -614 
Q 5779 -742 5625 -742 
Q 5472 -742 5401 -678 
Q 5331 -614 5242 -467 
Q 5005 -70 4749 131 
Q 4493 333 4154 422 
z
" transform="scale(0.015625)"/>
     </defs>
     <use xlink:href="#STSongti-SC-Black-6e38"/>
     <use xlink:href="#STSongti-SC-Black-5ba2" transform="translate(99.999985 0)"/>
     <use xlink:href="#STSongti-SC-Black-5bf9" transform="translate(199.999969 0)"/>
     <use xlink:href="#STSongti-SC-Black-6b65" transform="translate(299.999954 0)"/>
     <use xlink:href="#STSongti-SC-Black-884c" transform="translate(399.999939 0)"/>
     <use xlink:href="#STSongti-SC-Black-5f3a" transform="translate(499.999924 0)"/>
     <use xlink:href="#STSongti-SC-Black-5ea6" transform="translate(599.999908 0)"/>
     <use xlink:href="#STSongti-SC-Black-53ca" transform="translate(699.999893 0)"/>
     <use xlink:href="#STSongti-SC-Black-8def" transform="translate(799.999878 0)"/>
     <use xlink:href="#STSongti-SC-Black-7ebf" transform="translate(899.999863 0)"/>
     <use xlink:href="#STSongti-SC-Black-5b89" transform="translate(999.999847 0)"/>
     <use xlink:href="#STSongti-SC-Black-6392" transform="translate(1099.999832 0)"/>
     <use xlink:href="#STSongti-SC-Black-7684" transform="translate(1199.999817 0)"/>
     <use xlink:href="#STSongti-SC-Black-76f8" transform="translate(1299.999802 0)"/>
     <use xlink:href="#STSongti-SC-Black-5173" transform="translate(1399.999786 0)"/>
     <use xlink:href="#STSongti-SC-Black-53cd" transform="translate(1499.999771 0)"/>
     <use xlink:href="#STSongti-SC-Black-9988" transform="translate(1599.999756 0)"/>
    </g>
   </g>
  </g>
  <g id="text_10">
   <!-- 路线与体力负担相关表达细分 -->
   <g style="fill: #4a3b32" transform="translate(152.795 16.097969) scale(0.11 -0.11)">
    <defs>
     <path id="STSongti-SC-Black-4e0e" d="M 2234 3814 
L 2163 2784 
L 4550 2784 
Q 4730 3110 4758 3139 
Q 4787 3168 4819 3168 
Q 4890 3168 5258 2976 
Q 5626 2784 5696 2726 
Q 5766 2669 5766 2605 
Q 5766 2496 5536 2426 
Q 5485 883 5430 496 
Q 5376 109 5222 -121 
Q 5069 -352 4797 -473 
Q 4525 -595 4173 -595 
Q 4090 -595 4058 -569 
Q 4026 -544 4019 -422 
Q 4013 -198 3856 -76 
Q 3699 45 3347 102 
Q 3258 115 3258 140 
Q 3258 166 3379 166 
L 3584 166 
Q 4064 166 4259 214 
Q 4454 262 4537 419 
Q 4621 576 4662 973 
Q 4704 1370 4704 2573 
L 2202 2573 
L 2067 2387 
Q 1997 2285 1917 2285 
Q 1837 2285 1600 2413 
Q 1363 2541 1289 2576 
Q 1216 2611 1216 2684 
Q 1216 2758 1286 2777 
Q 1357 2797 1376 2825 
Q 1395 2854 1402 2912 
L 1510 4659 
Q 1530 4947 1530 5049 
Q 1530 5152 1523 5222 
Q 2477 5094 2477 4966 
Q 2477 4896 2298 4819 
L 2246 4026 
L 4730 4026 
Q 4813 4218 4918 4387 
Q 5024 4557 5062 4598 
Q 5101 4640 5133 4640 
Q 5203 4640 5484 4438 
Q 5766 4237 5904 4128 
Q 6042 4019 6042 3930 
Q 6042 3814 5843 3814 
L 2234 3814 
z
M 3373 1408 
Q 3693 1978 3795 1978 
Q 3853 1978 3994 1862 
L 4339 1581 
Q 4531 1421 4531 1318 
Q 4531 1197 4352 1197 
L 666 1197 
Q 538 1197 435 1126 
L 269 1427 
Q 422 1408 589 1408 
L 3373 1408 
z
" transform="scale(0.015625)"/>
     <path id="STSongti-SC-Black-4f53" d="M 3130 3546 
L 2240 3546 
Q 2112 3546 2010 3475 
L 1843 3776 
Q 1997 3757 2163 3757 
L 3450 3757 
L 3450 4557 
Q 3450 4979 3430 5286 
Q 3725 5261 4006 5213 
Q 4288 5165 4349 5136 
Q 4410 5107 4410 5062 
Q 4410 4979 4205 4902 
L 4205 3757 
L 4954 3757 
Q 5146 4109 5222 4217 
Q 5299 4326 5353 4326 
Q 5408 4326 5625 4163 
Q 5843 4000 6019 3833 
Q 6195 3667 6195 3606 
Q 6195 3546 6054 3546 
L 4435 3546 
Q 4557 2803 5027 2192 
Q 5498 1581 6246 1165 
Q 6323 1120 6323 1097 
Q 6323 1075 6188 1008 
Q 6054 941 5936 829 
Q 5818 717 5690 512 
Q 5645 442 5600 442 
Q 5498 442 5133 925 
Q 4768 1408 4528 2061 
Q 4288 2714 4237 3546 
L 4205 3546 
L 4205 864 
L 4333 864 
L 4512 1146 
Q 4582 1248 4640 1248 
Q 4698 1248 4950 1014 
Q 5203 781 5203 717 
Q 5203 653 5069 653 
L 4205 653 
L 4205 -416 
Q 4205 -499 4163 -537 
Q 4122 -576 3920 -630 
Q 3718 -685 3488 -685 
Q 3430 -685 3430 -614 
L 3443 -352 
Q 3450 -83 3450 243 
L 3450 653 
L 2790 653 
Q 2662 653 2560 582 
L 2394 883 
Q 2547 864 2714 864 
L 3450 864 
L 3450 2381 
Q 2829 1299 1850 678 
L 1850 -397 
Q 1850 -448 1830 -477 
Q 1811 -506 1680 -550 
Q 1549 -595 1353 -627 
Q 1158 -659 1082 -659 
Q 1037 -659 1037 -595 
L 1056 6 
Q 1062 288 1062 538 
L 1062 2630 
Q 832 2330 553 2045 
Q 275 1760 218 1760 
Q 205 1760 205 1785 
Q 205 1811 250 1888 
Q 730 2746 954 3546 
Q 1178 4346 1293 5318 
Q 1517 5261 1933 5123 
Q 2349 4986 2397 4947 
Q 2445 4909 2445 4870 
Q 2445 4800 2352 4781 
Q 2259 4762 2182 4630 
Q 2106 4499 1930 4118 
Q 1754 3738 1587 3450 
Q 1990 3341 1990 3232 
Q 1990 3162 1850 3098 
L 1850 870 
Q 2784 1920 3130 3546 
z
" transform="scale(0.015625)"/>
     <path id="STSongti-SC-Black-529b" d="M 3302 3392 
Q 3232 2522 3126 2022 
Q 3021 1523 2729 1075 
Q 2438 627 1974 259 
Q 1510 -109 966 -345 
Q 422 -582 326 -582 
Q 301 -582 301 -570 
Q 301 -550 384 -512 
Q 915 -243 1308 89 
Q 1702 422 1968 844 
Q 2234 1267 2362 1763 
Q 2490 2259 2547 3392 
L 1133 3392 
Q 1005 3392 902 3322 
L 736 3622 
Q 890 3603 1056 3603 
L 2554 3603 
Q 2579 4077 2592 5216 
Q 3328 5165 3491 5161 
Q 3654 5158 3654 5081 
Q 3654 5005 3565 4966 
Q 3424 4902 3398 4602 
L 3322 3603 
L 4691 3603 
Q 4890 3994 4966 3994 
Q 5037 3994 5443 3725 
Q 5850 3456 5850 3369 
Q 5850 3283 5581 3194 
Q 5510 1984 5417 1225 
Q 5325 467 5245 204 
Q 5165 -58 5021 -214 
Q 4877 -371 4617 -457 
Q 4358 -544 4090 -544 
Q 3994 -544 3952 -509 
Q 3910 -474 3904 -365 
Q 3885 -90 3750 16 
Q 3616 122 3328 205 
Q 3219 237 3219 262 
Q 3219 288 3350 281 
Q 3482 275 3610 275 
Q 4102 275 4288 355 
Q 4474 435 4541 668 
Q 4608 902 4685 1705 
Q 4762 2509 4794 3392 
L 3302 3392 
z
" transform="scale(0.015625)"/>
     <path id="STSongti-SC-Black-8d1f" d="M 2611 4410 
L 3782 4410 
Q 3949 4672 4000 4736 
Q 4051 4800 4109 4800 
Q 4198 4800 4576 4592 
Q 4954 4384 5034 4323 
Q 5114 4262 5114 4211 
Q 5114 4128 4909 4109 
Q 4704 4090 4569 4038 
Q 4435 3987 4224 3830 
Q 4013 3674 3578 3302 
L 4448 3302 
Q 4576 3488 4640 3584 
Q 4704 3680 4781 3680 
Q 4858 3680 5046 3568 
Q 5235 3456 5411 3337 
Q 5587 3219 5635 3168 
Q 5683 3117 5683 3062 
Q 5683 3008 5466 2925 
L 5466 1504 
Q 5466 1203 5472 1088 
L 5478 870 
Q 5478 819 5424 774 
Q 5370 730 5216 688 
Q 5062 646 4691 582 
Q 5242 435 5523 185 
Q 5805 -64 5805 -314 
Q 5805 -480 5677 -614 
Q 5549 -749 5382 -749 
Q 5139 -749 5024 -538 
Q 4762 -58 4403 214 
Q 4045 486 3494 646 
Q 3283 224 2886 -48 
Q 2490 -320 1766 -496 
Q 1043 -672 922 -672 
Q 864 -672 864 -633 
Q 864 -595 954 -563 
Q 1747 -250 2246 67 
Q 2746 384 2870 784 
Q 2995 1184 2995 2061 
Q 2995 2362 2982 2810 
Q 3187 2803 3497 2752 
Q 3808 2701 3885 2662 
Q 3962 2624 3962 2573 
Q 3962 2522 3853 2490 
Q 3814 2477 3798 2416 
Q 3782 2355 3776 2182 
Q 3757 1229 3539 742 
Q 4186 717 4653 595 
Q 4621 627 4621 736 
L 4621 3091 
L 2285 3091 
Q 2259 3034 2195 3008 
L 2195 653 
Q 2195 595 2172 569 
Q 2150 544 2025 502 
Q 1901 461 1699 425 
Q 1498 390 1408 390 
Q 1370 390 1370 442 
L 1382 742 
Q 1395 1056 1395 1312 
L 1395 2867 
Q 1395 3149 1389 3245 
Q 1056 3002 742 2845 
Q 429 2688 429 2714 
Q 429 2726 499 2797 
Q 1171 3424 1555 4019 
Q 1939 4614 2125 5293 
Q 3034 5133 3155 5097 
Q 3277 5062 3277 4998 
Q 3277 4934 3136 4902 
Q 3059 4883 2886 4697 
Q 2714 4512 2611 4410 
z
M 3392 3302 
Q 3616 3712 3802 4198 
L 2419 4198 
Q 1939 3699 1664 3462 
Q 1952 3392 2144 3302 
L 3392 3302 
z
" transform="scale(0.015625)"/>
     <path id="STSongti-SC-Black-62c5" d="M 1146 3520 
L 454 3520 
Q 326 3520 224 3450 
L 58 3750 
Q 211 3731 378 3731 
L 1146 3731 
L 1146 4582 
Q 1146 4966 1120 5267 
Q 1357 5254 1616 5222 
Q 1875 5190 1920 5164 
Q 1965 5139 1965 5094 
Q 1965 5050 1856 4979 
L 1856 3770 
Q 2016 4051 2054 4105 
Q 2093 4160 2137 4160 
Q 2182 4160 2233 4118 
Q 2285 4077 2441 3901 
Q 2598 3725 2636 3680 
Q 2675 3635 2675 3577 
Q 2675 3520 2560 3520 
L 1856 3520 
L 1856 2528 
L 2336 2656 
Q 2656 2739 2714 2739 
L 2714 4230 
Q 2714 4621 2701 4896 
Q 2957 4819 3494 4589 
L 4672 4589 
Q 4883 4954 4912 4979 
Q 4941 5005 4973 5005 
Q 5050 5005 5462 4736 
Q 5875 4467 5875 4371 
Q 5875 4275 5594 4154 
L 5594 1773 
Q 5594 1510 5606 1235 
L 5626 826 
Q 5626 768 5565 726 
Q 5504 685 5341 640 
Q 5178 595 5030 595 
Q 4883 595 4844 624 
Q 4806 653 4806 730 
L 4806 1114 
L 3450 1114 
L 3450 762 
Q 3450 698 3414 666 
Q 3379 634 3142 570 
Q 2906 506 2765 506 
Q 2694 506 2694 595 
L 2707 979 
Q 2714 1152 2714 1421 
L 2714 2675 
L 1856 2176 
L 1856 128 
Q 1856 -115 1824 -240 
Q 1792 -365 1699 -438 
Q 1606 -512 1376 -576 
Q 1146 -640 1062 -640 
Q 909 -640 896 -518 
Q 870 -288 768 -169 
Q 666 -51 486 -3 
Q 307 45 307 70 
Q 307 96 384 96 
L 672 90 
Q 986 90 1066 144 
Q 1146 198 1146 365 
L 1146 1728 
Q 877 1549 653 1376 
Q 602 1338 570 1338 
Q 538 1338 515 1373 
Q 493 1408 390 1632 
Q 288 1856 192 2176 
Q 666 2253 1146 2355 
L 1146 3520 
z
M 3450 2982 
L 4806 2982 
L 4806 4378 
L 3546 4378 
Q 3514 4333 3450 4307 
L 3450 2982 
z
M 4806 2771 
L 3450 2771 
L 3450 1325 
L 4806 1325 
L 4806 2771 
z
M 5082 -38 
Q 5299 403 5334 460 
Q 5370 518 5427 518 
Q 5485 518 5683 352 
L 6061 32 
Q 6240 -122 6240 -186 
Q 6240 -250 6112 -250 
L 2349 -250 
Q 2221 -250 2118 -320 
L 1952 -19 
Q 2106 -38 2272 -38 
L 5082 -38 
z
" transform="scale(0.015625)"/>
     <path id="STSongti-SC-Black-8868" d="M 2803 4141 
L 1075 4141 
Q 947 4141 845 4070 
L 678 4371 
Q 832 4352 998 4352 
L 2803 4352 
L 2803 4736 
Q 2803 5056 2790 5306 
Q 3328 5254 3536 5212 
Q 3744 5171 3744 5100 
Q 3744 5030 3616 4960 
L 3616 4352 
L 4730 4352 
Q 4781 4442 4909 4646 
Q 5037 4851 5062 4873 
Q 5088 4896 5114 4896 
Q 5203 4896 5603 4595 
Q 6003 4294 6003 4217 
Q 6003 4141 5875 4141 
L 3616 4141 
L 3616 3430 
L 4506 3430 
Q 4672 3718 4742 3827 
Q 4813 3936 4858 3936 
Q 4934 3936 5305 3657 
Q 5677 3379 5677 3299 
Q 5677 3219 5549 3219 
L 3616 3219 
L 3616 2490 
L 4954 2490 
Q 5216 2944 5251 2989 
Q 5286 3034 5331 3034 
Q 5408 3034 5814 2733 
Q 6221 2432 6221 2355 
Q 6221 2278 6086 2278 
L 5062 2278 
Q 5274 2189 5514 2048 
Q 5754 1907 5789 1862 
Q 5824 1818 5824 1779 
Q 5824 1677 5625 1670 
Q 5427 1664 5203 1577 
Q 4979 1491 4346 1139 
Q 5011 454 6259 243 
Q 6362 224 6362 201 
Q 6362 179 6266 134 
Q 5837 -51 5606 -531 
Q 5574 -602 5465 -602 
Q 5357 -602 4835 -237 
Q 4314 128 3994 563 
Q 3981 550 3942 525 
Q 2675 -320 2291 -672 
Q 2246 -710 2204 -710 
Q 2163 -710 2131 -653 
Q 1958 -275 1734 26 
Q 1709 64 1709 102 
Q 1709 179 1773 186 
Q 2042 230 2042 493 
L 2042 1018 
Q 1498 659 922 438 
Q 346 218 243 218 
Q 205 218 205 240 
Q 205 262 275 307 
Q 1120 819 1501 1187 
Q 1882 1555 2291 2278 
L 813 2278 
Q 685 2278 582 2208 
L 416 2509 
Q 570 2490 736 2490 
L 2803 2490 
L 2803 3219 
L 1382 3219 
Q 1254 3219 1152 3149 
L 986 3450 
Q 1139 3430 1306 3430 
L 2803 3430 
L 2803 4141 
z
M 4845 2278 
L 3635 2278 
Q 3859 1690 4230 1261 
Q 4646 1837 4845 2278 
z
M 3424 2246 
Q 3373 2195 3264 2150 
Q 3059 1907 2950 1786 
Q 2957 1715 2816 1651 
L 2778 1613 
L 2778 314 
L 3302 461 
Q 3910 627 3949 627 
Q 3501 1274 3424 2246 
z
" transform="scale(0.015625)"/>
     <path id="STSongti-SC-Black-8fbe" d="M 3251 3347 
L 2298 3347 
Q 2170 3347 2067 3277 
L 1901 3578 
Q 2054 3558 2221 3558 
L 3258 3558 
Q 3270 4346 3206 5235 
Q 4115 5158 4227 5142 
Q 4339 5126 4339 5056 
Q 4339 5005 4249 4957 
Q 4160 4909 4160 4688 
Q 4160 4467 4077 3558 
L 4678 3558 
Q 4698 3603 4832 3849 
Q 4966 4096 4995 4121 
Q 5024 4147 5059 4147 
Q 5094 4147 5200 4073 
Q 5306 4000 5568 3782 
Q 5830 3565 5881 3504 
Q 5933 3443 5933 3411 
Q 5933 3347 5792 3347 
L 4058 3347 
Q 4026 2982 3955 2573 
Q 4755 2304 5158 1901 
Q 5562 1498 5562 1133 
Q 5562 883 5395 710 
Q 5229 538 5030 538 
Q 4832 538 4717 704 
Q 4602 870 4589 1184 
Q 4557 1984 3936 2445 
Q 3814 1786 3350 1242 
Q 2886 698 2131 384 
Q 2362 237 2611 173 
Q 2861 109 3296 109 
Q 4877 109 6080 262 
Q 6131 269 6176 269 
Q 6221 269 6221 249 
Q 6221 230 6106 160 
Q 5779 -32 5683 -518 
Q 5677 -557 5654 -579 
Q 5632 -602 5542 -602 
L 5011 -614 
Q 4563 -627 3936 -627 
Q 3309 -627 2915 -550 
Q 2522 -474 2307 -339 
Q 2093 -205 1779 173 
Q 1722 237 1658 269 
L 1357 269 
Q 1210 166 864 -538 
Q 832 -602 803 -602 
Q 774 -602 745 -576 
Q 717 -550 521 -316 
Q 326 -83 192 134 
Q 691 506 979 685 
L 979 2477 
L 518 2477 
Q 346 2477 250 2432 
L 115 2720 
Q 250 2688 435 2688 
L 922 2688 
Q 979 2816 1052 2941 
Q 1126 3066 1152 3091 
Q 1178 3117 1210 3117 
Q 1274 3117 1654 2870 
Q 2035 2624 2035 2525 
Q 2035 2426 1779 2374 
L 1779 634 
Q 1920 531 2016 454 
Q 2592 858 2915 1469 
Q 3238 2080 3251 3347 
z
M 499 4934 
Q 1088 4934 1501 4704 
Q 1914 4474 1914 4134 
Q 1914 3891 1763 3737 
Q 1613 3584 1417 3584 
Q 1222 3584 1097 3705 
Q 973 3827 973 4000 
Q 973 4346 851 4547 
Q 730 4749 474 4845 
Q 390 4877 390 4905 
Q 390 4934 499 4934 
z
" transform="scale(0.015625)"/>
     <path id="STSongti-SC-Black-7ec6" d="M 1664 2906 
Q 1114 2752 730 2547 
Q 685 2522 649 2522 
Q 614 2522 585 2570 
Q 557 2618 473 2909 
Q 390 3200 390 3264 
Q 390 3328 474 3341 
Q 659 3366 729 3452 
Q 800 3539 1024 4092 
Q 1248 4646 1370 5229 
Q 1722 5069 1981 4931 
Q 2240 4794 2288 4755 
Q 2336 4717 2336 4685 
Q 2336 4627 2233 4604 
Q 2131 4582 2067 4528 
Q 2003 4474 1658 4058 
L 973 3232 
L 1818 3258 
Q 1958 3584 2086 3974 
Q 2470 3770 2746 3584 
L 2746 4141 
Q 2746 4531 2733 4813 
Q 3322 4621 3526 4525 
L 5018 4525 
Q 5133 4742 5184 4819 
Q 5235 4896 5276 4896 
Q 5318 4896 5481 4793 
Q 5645 4691 5853 4531 
Q 6061 4371 6099 4323 
Q 6138 4275 6138 4237 
Q 6138 4141 5882 4045 
L 5882 371 
L 5894 -275 
Q 5894 -352 5884 -371 
Q 5875 -390 5760 -428 
Q 5645 -467 5453 -505 
Q 5261 -544 5184 -544 
Q 5120 -544 5120 -435 
L 5120 122 
L 3469 122 
L 3469 -320 
Q 3469 -378 3449 -400 
Q 3430 -422 3324 -460 
Q 3219 -499 3011 -534 
Q 2803 -570 2768 -570 
Q 2733 -570 2733 -518 
L 2739 -141 
Q 2746 38 2746 339 
L 2746 742 
Q 1542 141 774 -288 
Q 717 -320 688 -320 
Q 659 -320 643 -294 
Q 627 -269 547 -51 
Q 467 166 339 544 
Q 1741 672 2746 826 
L 2746 1690 
Q 1485 1312 941 992 
Q 909 973 870 973 
Q 832 973 813 1043 
Q 794 1114 691 1389 
Q 589 1664 589 1728 
Q 589 1792 646 1798 
Q 832 1818 969 1891 
Q 1107 1965 1203 2099 
Q 1299 2234 1424 2448 
Q 1549 2662 1664 2906 
z
M 3469 2560 
L 3942 2560 
L 3942 4314 
L 3558 4314 
Q 3546 4269 3469 4230 
L 3469 2560 
z
M 4608 2560 
L 5120 2560 
L 5120 4314 
L 4678 4314 
Q 4659 4262 4608 4224 
L 4608 2560 
z
M 2746 3296 
Q 2682 3270 2621 3228 
Q 2560 3187 2400 2989 
L 1382 1786 
L 2746 1811 
L 2746 3296 
z
M 3942 2349 
L 3469 2349 
L 3469 333 
L 3942 333 
L 3942 2349 
z
M 5120 2349 
L 4608 2349 
L 4608 333 
L 5120 333 
L 5120 2349 
z
" transform="scale(0.015625)"/>
     <path id="STSongti-SC-Black-5206" d="M 6355 2810 
Q 6355 2778 6204 2710 
Q 6054 2643 5936 2524 
Q 5818 2406 5683 2125 
Q 5651 2042 5577 2042 
Q 5504 2042 5385 2112 
Q 5267 2182 4915 2464 
Q 4563 2746 4268 3158 
Q 3974 3571 3795 4041 
Q 3616 4512 3552 4838 
Q 3488 5165 3488 5232 
Q 3488 5299 3546 5299 
Q 3635 5299 3891 5225 
Q 4147 5152 4147 5075 
Q 4147 5030 4070 4992 
Q 3866 4883 3866 4806 
Q 3866 4659 4064 4297 
Q 4262 3936 4608 3638 
Q 4954 3341 5373 3145 
Q 5792 2950 6234 2861 
Q 6355 2835 6355 2810 
z
M 1216 2528 
Q 986 2349 691 2176 
Q 397 2003 326 2003 
Q 294 2003 294 2035 
Q 294 2067 384 2138 
Q 947 2586 1417 3379 
Q 1888 4173 2099 5056 
Q 2477 4934 2749 4800 
Q 3021 4666 3078 4618 
Q 3136 4570 3136 4525 
Q 3136 4480 3017 4467 
Q 2899 4454 2835 4396 
Q 2771 4339 2688 4198 
Q 2182 3290 1299 2586 
L 3846 2586 
Q 4045 2938 4134 2938 
Q 4179 2938 4406 2774 
Q 4634 2611 4803 2464 
Q 4973 2317 4973 2266 
Q 4973 2195 4755 2131 
Q 4755 1459 4646 758 
Q 4538 58 4419 -163 
Q 4301 -384 4048 -518 
Q 3795 -653 3462 -653 
Q 3341 -653 3293 -611 
Q 3245 -570 3238 -467 
Q 3219 -58 2656 58 
Q 2547 83 2547 118 
Q 2547 154 2752 138 
Q 2957 122 3187 122 
Q 3418 122 3542 176 
Q 3667 230 3731 380 
Q 3795 531 3862 1203 
Q 3930 1875 3917 2374 
L 2957 2374 
Q 2880 2298 2848 2099 
Q 2720 1254 2515 838 
Q 2310 422 1958 150 
Q 1606 -122 1011 -355 
Q 416 -589 314 -589 
Q 288 -589 288 -576 
Q 288 -544 416 -474 
Q 1043 -134 1385 211 
Q 1728 557 1885 1059 
Q 2042 1562 2054 2374 
L 1568 2374 
Q 1440 2374 1338 2304 
L 1216 2528 
z
" transform="scale(0.015625)"/>
    </defs>
    <use xlink:href="#STSongti-SC-Black-8def"/>
    <use xlink:href="#STSongti-SC-Black-7ebf" transform="translate(99.999985 0)"/>
    <use xlink:href="#STSongti-SC-Black-4e0e" transform="translate(199.999969 0)"/>
    <use xlink:href="#STSongti-SC-Black-4f53" transform="translate(299.999954 0)"/>
    <use xlink:href="#STSongti-SC-Black-529b" transform="translate(399.999939 0)"/>
    <use xlink:href="#STSongti-SC-Black-8d1f" transform="translate(499.999924 0)"/>
    <use xlink:href="#STSongti-SC-Black-62c5" transform="translate(599.999908 0)"/>
    <use xlink:href="#STSongti-SC-Black-76f8" transform="translate(699.999893 0)"/>
    <use xlink:href="#STSongti-SC-Black-5173" transform="translate(799.999878 0)"/>
    <use xlink:href="#STSongti-SC-Black-8868" transform="translate(899.999863 0)"/>
    <use xlink:href="#STSongti-SC-Black-8fbe" transform="translate(999.999847 0)"/>
    <use xlink:href="#STSongti-SC-Black-7ec6" transform="translate(1099.999832 0)"/>
    <use xlink:href="#STSongti-SC-Black-5206" transform="translate(1199.999817 0)"/>
   </g>
  </g>
 </g>
 <defs>
  <clipPath id="p6dc8e38af4">
   <rect x="42.7" y="31.57275" width="398.675" height="114.68457"/>
  </clipPath>
 </defs>
</svg>
